<?xml version="1.0" encoding="utf-8" standalone="no"?>
<!DOCTYPE svg PUBLIC "-//W3C//DTD SVG 1.1//EN"
  "http://www.w3.org/Graphics/SVG/1.1/DTD/svg11.dtd">
<svg xmlns:xlink="http://www.w3.org/1999/xlink" width="720pt" height="432pt" viewBox="0 0 720 432" xmlns="http://www.w3.org/2000/svg" version="1.1">
 <metadata>
  <rdf:RDF xmlns:dc="http://purl.org/dc/elements/1.1/" xmlns:cc="http://creativecommons.org/ns#" xmlns:rdf="http://www.w3.org/1999/02/22-rdf-syntax-ns#">
   <cc:Work>
    <dc:type rdf:resource="http://purl.org/dc/dcmitype/StillImage"/>
    <dc:date>2025-11-18T01:40:10.280934</dc:date>
    <dc:format>image/svg+xml</dc:format>
    <dc:creator>
     <cc:Agent>
      <dc:title>Matplotlib v3.9.2, https://matplotlib.org/</dc:title>
     </cc:Agent>
    </dc:creator>
   </cc:Work>
  </rdf:RDF>
 </metadata>
 <defs>
  <style type="text/css">*{stroke-linejoin: round; stroke-linecap: butt}</style>
 </defs>
 <g id="figure_1">
  <g id="patch_1">
   <path d="M 0 432 
L 720 432 
L 720 0 
L 0 0 
z
" style="fill: #ffffff"/>
  </g>
  <g id="axes_1">
   <g id="patch_2">
    <path d="M 90 384.48 
L 648 384.48 
L 648 51.84 
L 90 51.84 
z
" style="fill: #ffffff"/>
   </g>
   <g id="matplotlib.axis_1">
    <g id="xtick_1">
     <g id="line2d_1">
      <path d="M 111.123082 384.48 
L 111.123082 51.84 
" clip-path="url(#p719e1975d8)" style="fill: none; stroke-dasharray: 2.96,1.28; stroke-dashoffset: 0; stroke: #b0b0b0; stroke-opacity: 0.7; stroke-width: 0.8"/>
     </g>
     <g id="line2d_2">
      <defs>
       <path id="m796c4366ee" d="M 0 0 
L 0 3.5 
" style="stroke: #000000; stroke-width: 0.8"/>
      </defs>
      <g>
       <use xlink:href="#m796c4366ee" x="111.123082" y="384.48" style="stroke: #000000; stroke-width: 0.8"/>
      </g>
     </g>
     <g id="text_1">
      <!-- −35 -->
      <g transform="translate(100.570738 399.078438) scale(0.1 -0.1)">
       <defs>
        <path id="DejaVuSans-2212" d="M 678 2272 
L 4684 2272 
L 4684 1741 
L 678 1741 
L 678 2272 
z
" transform="scale(0.015625)"/>
        <path id="DejaVuSans-33" d="M 2597 2516 
Q 3050 2419 3304 2112 
Q 3559 1806 3559 1356 
Q 3559 666 3084 287 
Q 2609 -91 1734 -91 
Q 1441 -91 1130 -33 
Q 819 25 488 141 
L 488 750 
Q 750 597 1062 519 
Q 1375 441 1716 441 
Q 2309 441 2620 675 
Q 2931 909 2931 1356 
Q 2931 1769 2642 2001 
Q 2353 2234 1838 2234 
L 1294 2234 
L 1294 2753 
L 1863 2753 
Q 2328 2753 2575 2939 
Q 2822 3125 2822 3475 
Q 2822 3834 2567 4026 
Q 2313 4219 1838 4219 
Q 1578 4219 1281 4162 
Q 984 4106 628 3988 
L 628 4550 
Q 988 4650 1302 4700 
Q 1616 4750 1894 4750 
Q 2613 4750 3031 4423 
Q 3450 4097 3450 3541 
Q 3450 3153 3228 2886 
Q 3006 2619 2597 2516 
z
" transform="scale(0.015625)"/>
        <path id="DejaVuSans-35" d="M 691 4666 
L 3169 4666 
L 3169 4134 
L 1269 4134 
L 1269 2991 
Q 1406 3038 1543 3061 
Q 1681 3084 1819 3084 
Q 2600 3084 3056 2656 
Q 3513 2228 3513 1497 
Q 3513 744 3044 326 
Q 2575 -91 1722 -91 
Q 1428 -91 1123 -41 
Q 819 9 494 109 
L 494 744 
Q 775 591 1075 516 
Q 1375 441 1709 441 
Q 2250 441 2565 725 
Q 2881 1009 2881 1497 
Q 2881 1984 2565 2268 
Q 2250 2553 1709 2553 
Q 1456 2553 1204 2497 
Q 953 2441 691 2322 
L 691 4666 
z
" transform="scale(0.015625)"/>
       </defs>
       <use xlink:href="#DejaVuSans-2212"/>
       <use xlink:href="#DejaVuSans-33" x="83.789062"/>
       <use xlink:href="#DejaVuSans-35" x="147.412109"/>
      </g>
     </g>
    </g>
    <g id="xtick_2">
     <g id="line2d_3">
      <path d="M 187.18476 384.48 
L 187.18476 51.84 
" clip-path="url(#p719e1975d8)" style="fill: none; stroke-dasharray: 2.96,1.28; stroke-dashoffset: 0; stroke: #b0b0b0; stroke-opacity: 0.7; stroke-width: 0.8"/>
     </g>
     <g id="line2d_4">
      <g>
       <use xlink:href="#m796c4366ee" x="187.18476" y="384.48" style="stroke: #000000; stroke-width: 0.8"/>
      </g>
     </g>
     <g id="text_2">
      <!-- −30 -->
      <g transform="translate(176.632416 399.078438) scale(0.1 -0.1)">
       <defs>
        <path id="DejaVuSans-30" d="M 2034 4250 
Q 1547 4250 1301 3770 
Q 1056 3291 1056 2328 
Q 1056 1369 1301 889 
Q 1547 409 2034 409 
Q 2525 409 2770 889 
Q 3016 1369 3016 2328 
Q 3016 3291 2770 3770 
Q 2525 4250 2034 4250 
z
M 2034 4750 
Q 2819 4750 3233 4129 
Q 3647 3509 3647 2328 
Q 3647 1150 3233 529 
Q 2819 -91 2034 -91 
Q 1250 -91 836 529 
Q 422 1150 422 2328 
Q 422 3509 836 4129 
Q 1250 4750 2034 4750 
z
" transform="scale(0.015625)"/>
       </defs>
       <use xlink:href="#DejaVuSans-2212"/>
       <use xlink:href="#DejaVuSans-33" x="83.789062"/>
       <use xlink:href="#DejaVuSans-30" x="147.412109"/>
      </g>
     </g>
    </g>
    <g id="xtick_3">
     <g id="line2d_5">
      <path d="M 263.246438 384.48 
L 263.246438 51.84 
" clip-path="url(#p719e1975d8)" style="fill: none; stroke-dasharray: 2.96,1.28; stroke-dashoffset: 0; stroke: #b0b0b0; stroke-opacity: 0.7; stroke-width: 0.8"/>
     </g>
     <g id="line2d_6">
      <g>
       <use xlink:href="#m796c4366ee" x="263.246438" y="384.48" style="stroke: #000000; stroke-width: 0.8"/>
      </g>
     </g>
     <g id="text_3">
      <!-- −25 -->
      <g transform="translate(252.694094 399.078438) scale(0.1 -0.1)">
       <defs>
        <path id="DejaVuSans-32" d="M 1228 531 
L 3431 531 
L 3431 0 
L 469 0 
L 469 531 
Q 828 903 1448 1529 
Q 2069 2156 2228 2338 
Q 2531 2678 2651 2914 
Q 2772 3150 2772 3378 
Q 2772 3750 2511 3984 
Q 2250 4219 1831 4219 
Q 1534 4219 1204 4116 
Q 875 4013 500 3803 
L 500 4441 
Q 881 4594 1212 4672 
Q 1544 4750 1819 4750 
Q 2544 4750 2975 4387 
Q 3406 4025 3406 3419 
Q 3406 3131 3298 2873 
Q 3191 2616 2906 2266 
Q 2828 2175 2409 1742 
Q 1991 1309 1228 531 
z
" transform="scale(0.015625)"/>
       </defs>
       <use xlink:href="#DejaVuSans-2212"/>
       <use xlink:href="#DejaVuSans-32" x="83.789062"/>
       <use xlink:href="#DejaVuSans-35" x="147.412109"/>
      </g>
     </g>
    </g>
    <g id="xtick_4">
     <g id="line2d_7">
      <path d="M 339.308115 384.48 
L 339.308115 51.84 
" clip-path="url(#p719e1975d8)" style="fill: none; stroke-dasharray: 2.96,1.28; stroke-dashoffset: 0; stroke: #b0b0b0; stroke-opacity: 0.7; stroke-width: 0.8"/>
     </g>
     <g id="line2d_8">
      <g>
       <use xlink:href="#m796c4366ee" x="339.308115" y="384.48" style="stroke: #000000; stroke-width: 0.8"/>
      </g>
     </g>
     <g id="text_4">
      <!-- −20 -->
      <g transform="translate(328.755772 399.078438) scale(0.1 -0.1)">
       <use xlink:href="#DejaVuSans-2212"/>
       <use xlink:href="#DejaVuSans-32" x="83.789062"/>
       <use xlink:href="#DejaVuSans-30" x="147.412109"/>
      </g>
     </g>
    </g>
    <g id="xtick_5">
     <g id="line2d_9">
      <path d="M 415.369793 384.48 
L 415.369793 51.84 
" clip-path="url(#p719e1975d8)" style="fill: none; stroke-dasharray: 2.96,1.28; stroke-dashoffset: 0; stroke: #b0b0b0; stroke-opacity: 0.7; stroke-width: 0.8"/>
     </g>
     <g id="line2d_10">
      <g>
       <use xlink:href="#m796c4366ee" x="415.369793" y="384.48" style="stroke: #000000; stroke-width: 0.8"/>
      </g>
     </g>
     <g id="text_5">
      <!-- −15 -->
      <g transform="translate(404.817449 399.078438) scale(0.1 -0.1)">
       <defs>
        <path id="DejaVuSans-31" d="M 794 531 
L 1825 531 
L 1825 4091 
L 703 3866 
L 703 4441 
L 1819 4666 
L 2450 4666 
L 2450 531 
L 3481 531 
L 3481 0 
L 794 0 
L 794 531 
z
" transform="scale(0.015625)"/>
       </defs>
       <use xlink:href="#DejaVuSans-2212"/>
       <use xlink:href="#DejaVuSans-31" x="83.789062"/>
       <use xlink:href="#DejaVuSans-35" x="147.412109"/>
      </g>
     </g>
    </g>
    <g id="xtick_6">
     <g id="line2d_11">
      <path d="M 491.431471 384.48 
L 491.431471 51.84 
" clip-path="url(#p719e1975d8)" style="fill: none; stroke-dasharray: 2.96,1.28; stroke-dashoffset: 0; stroke: #b0b0b0; stroke-opacity: 0.7; stroke-width: 0.8"/>
     </g>
     <g id="line2d_12">
      <g>
       <use xlink:href="#m796c4366ee" x="491.431471" y="384.48" style="stroke: #000000; stroke-width: 0.8"/>
      </g>
     </g>
     <g id="text_6">
      <!-- −10 -->
      <g transform="translate(480.879127 399.078438) scale(0.1 -0.1)">
       <use xlink:href="#DejaVuSans-2212"/>
       <use xlink:href="#DejaVuSans-31" x="83.789062"/>
       <use xlink:href="#DejaVuSans-30" x="147.412109"/>
      </g>
     </g>
    </g>
    <g id="xtick_7">
     <g id="line2d_13">
      <path d="M 567.493149 384.48 
L 567.493149 51.84 
" clip-path="url(#p719e1975d8)" style="fill: none; stroke-dasharray: 2.96,1.28; stroke-dashoffset: 0; stroke: #b0b0b0; stroke-opacity: 0.7; stroke-width: 0.8"/>
     </g>
     <g id="line2d_14">
      <g>
       <use xlink:href="#m796c4366ee" x="567.493149" y="384.48" style="stroke: #000000; stroke-width: 0.8"/>
      </g>
     </g>
     <g id="text_7">
      <!-- −5 -->
      <g transform="translate(560.122055 399.078438) scale(0.1 -0.1)">
       <use xlink:href="#DejaVuSans-2212"/>
       <use xlink:href="#DejaVuSans-35" x="83.789062"/>
      </g>
     </g>
    </g>
    <g id="xtick_8">
     <g id="line2d_15">
      <path d="M 643.554827 384.48 
L 643.554827 51.84 
" clip-path="url(#p719e1975d8)" style="fill: none; stroke-dasharray: 2.96,1.28; stroke-dashoffset: 0; stroke: #b0b0b0; stroke-opacity: 0.7; stroke-width: 0.8"/>
     </g>
     <g id="line2d_16">
      <g>
       <use xlink:href="#m796c4366ee" x="643.554827" y="384.48" style="stroke: #000000; stroke-width: 0.8"/>
      </g>
     </g>
     <g id="text_8">
      <!-- 0 -->
      <g transform="translate(640.373577 399.078438) scale(0.1 -0.1)">
       <use xlink:href="#DejaVuSans-30"/>
      </g>
     </g>
    </g>
    <g id="text_9">
     <!-- Amplitude (graus) -->
     <g transform="translate(323.819531 412.756563) scale(0.1 -0.1)">
      <defs>
       <path id="DejaVuSans-41" d="M 2188 4044 
L 1331 1722 
L 3047 1722 
L 2188 4044 
z
M 1831 4666 
L 2547 4666 
L 4325 0 
L 3669 0 
L 3244 1197 
L 1141 1197 
L 716 0 
L 50 0 
L 1831 4666 
z
" transform="scale(0.015625)"/>
       <path id="DejaVuSans-6d" d="M 3328 2828 
Q 3544 3216 3844 3400 
Q 4144 3584 4550 3584 
Q 5097 3584 5394 3201 
Q 5691 2819 5691 2113 
L 5691 0 
L 5113 0 
L 5113 2094 
Q 5113 2597 4934 2840 
Q 4756 3084 4391 3084 
Q 3944 3084 3684 2787 
Q 3425 2491 3425 1978 
L 3425 0 
L 2847 0 
L 2847 2094 
Q 2847 2600 2669 2842 
Q 2491 3084 2119 3084 
Q 1678 3084 1418 2786 
Q 1159 2488 1159 1978 
L 1159 0 
L 581 0 
L 581 3500 
L 1159 3500 
L 1159 2956 
Q 1356 3278 1631 3431 
Q 1906 3584 2284 3584 
Q 2666 3584 2933 3390 
Q 3200 3197 3328 2828 
z
" transform="scale(0.015625)"/>
       <path id="DejaVuSans-70" d="M 1159 525 
L 1159 -1331 
L 581 -1331 
L 581 3500 
L 1159 3500 
L 1159 2969 
Q 1341 3281 1617 3432 
Q 1894 3584 2278 3584 
Q 2916 3584 3314 3078 
Q 3713 2572 3713 1747 
Q 3713 922 3314 415 
Q 2916 -91 2278 -91 
Q 1894 -91 1617 61 
Q 1341 213 1159 525 
z
M 3116 1747 
Q 3116 2381 2855 2742 
Q 2594 3103 2138 3103 
Q 1681 3103 1420 2742 
Q 1159 2381 1159 1747 
Q 1159 1113 1420 752 
Q 1681 391 2138 391 
Q 2594 391 2855 752 
Q 3116 1113 3116 1747 
z
" transform="scale(0.015625)"/>
       <path id="DejaVuSans-6c" d="M 603 4863 
L 1178 4863 
L 1178 0 
L 603 0 
L 603 4863 
z
" transform="scale(0.015625)"/>
       <path id="DejaVuSans-69" d="M 603 3500 
L 1178 3500 
L 1178 0 
L 603 0 
L 603 3500 
z
M 603 4863 
L 1178 4863 
L 1178 4134 
L 603 4134 
L 603 4863 
z
" transform="scale(0.015625)"/>
       <path id="DejaVuSans-74" d="M 1172 4494 
L 1172 3500 
L 2356 3500 
L 2356 3053 
L 1172 3053 
L 1172 1153 
Q 1172 725 1289 603 
Q 1406 481 1766 481 
L 2356 481 
L 2356 0 
L 1766 0 
Q 1100 0 847 248 
Q 594 497 594 1153 
L 594 3053 
L 172 3053 
L 172 3500 
L 594 3500 
L 594 4494 
L 1172 4494 
z
" transform="scale(0.015625)"/>
       <path id="DejaVuSans-75" d="M 544 1381 
L 544 3500 
L 1119 3500 
L 1119 1403 
Q 1119 906 1312 657 
Q 1506 409 1894 409 
Q 2359 409 2629 706 
Q 2900 1003 2900 1516 
L 2900 3500 
L 3475 3500 
L 3475 0 
L 2900 0 
L 2900 538 
Q 2691 219 2414 64 
Q 2138 -91 1772 -91 
Q 1169 -91 856 284 
Q 544 659 544 1381 
z
M 1991 3584 
L 1991 3584 
z
" transform="scale(0.015625)"/>
       <path id="DejaVuSans-64" d="M 2906 2969 
L 2906 4863 
L 3481 4863 
L 3481 0 
L 2906 0 
L 2906 525 
Q 2725 213 2448 61 
Q 2172 -91 1784 -91 
Q 1150 -91 751 415 
Q 353 922 353 1747 
Q 353 2572 751 3078 
Q 1150 3584 1784 3584 
Q 2172 3584 2448 3432 
Q 2725 3281 2906 2969 
z
M 947 1747 
Q 947 1113 1208 752 
Q 1469 391 1925 391 
Q 2381 391 2643 752 
Q 2906 1113 2906 1747 
Q 2906 2381 2643 2742 
Q 2381 3103 1925 3103 
Q 1469 3103 1208 2742 
Q 947 2381 947 1747 
z
" transform="scale(0.015625)"/>
       <path id="DejaVuSans-65" d="M 3597 1894 
L 3597 1613 
L 953 1613 
Q 991 1019 1311 708 
Q 1631 397 2203 397 
Q 2534 397 2845 478 
Q 3156 559 3463 722 
L 3463 178 
Q 3153 47 2828 -22 
Q 2503 -91 2169 -91 
Q 1331 -91 842 396 
Q 353 884 353 1716 
Q 353 2575 817 3079 
Q 1281 3584 2069 3584 
Q 2775 3584 3186 3129 
Q 3597 2675 3597 1894 
z
M 3022 2063 
Q 3016 2534 2758 2815 
Q 2500 3097 2075 3097 
Q 1594 3097 1305 2825 
Q 1016 2553 972 2059 
L 3022 2063 
z
" transform="scale(0.015625)"/>
       <path id="DejaVuSans-20" transform="scale(0.015625)"/>
       <path id="DejaVuSans-28" d="M 1984 4856 
Q 1566 4138 1362 3434 
Q 1159 2731 1159 2009 
Q 1159 1288 1364 580 
Q 1569 -128 1984 -844 
L 1484 -844 
Q 1016 -109 783 600 
Q 550 1309 550 2009 
Q 550 2706 781 3412 
Q 1013 4119 1484 4856 
L 1984 4856 
z
" transform="scale(0.015625)"/>
       <path id="DejaVuSans-67" d="M 2906 1791 
Q 2906 2416 2648 2759 
Q 2391 3103 1925 3103 
Q 1463 3103 1205 2759 
Q 947 2416 947 1791 
Q 947 1169 1205 825 
Q 1463 481 1925 481 
Q 2391 481 2648 825 
Q 2906 1169 2906 1791 
z
M 3481 434 
Q 3481 -459 3084 -895 
Q 2688 -1331 1869 -1331 
Q 1566 -1331 1297 -1286 
Q 1028 -1241 775 -1147 
L 775 -588 
Q 1028 -725 1275 -790 
Q 1522 -856 1778 -856 
Q 2344 -856 2625 -561 
Q 2906 -266 2906 331 
L 2906 616 
Q 2728 306 2450 153 
Q 2172 0 1784 0 
Q 1141 0 747 490 
Q 353 981 353 1791 
Q 353 2603 747 3093 
Q 1141 3584 1784 3584 
Q 2172 3584 2450 3431 
Q 2728 3278 2906 2969 
L 2906 3500 
L 3481 3500 
L 3481 434 
z
" transform="scale(0.015625)"/>
       <path id="DejaVuSans-72" d="M 2631 2963 
Q 2534 3019 2420 3045 
Q 2306 3072 2169 3072 
Q 1681 3072 1420 2755 
Q 1159 2438 1159 1844 
L 1159 0 
L 581 0 
L 581 3500 
L 1159 3500 
L 1159 2956 
Q 1341 3275 1631 3429 
Q 1922 3584 2338 3584 
Q 2397 3584 2469 3576 
Q 2541 3569 2628 3553 
L 2631 2963 
z
" transform="scale(0.015625)"/>
       <path id="DejaVuSans-61" d="M 2194 1759 
Q 1497 1759 1228 1600 
Q 959 1441 959 1056 
Q 959 750 1161 570 
Q 1363 391 1709 391 
Q 2188 391 2477 730 
Q 2766 1069 2766 1631 
L 2766 1759 
L 2194 1759 
z
M 3341 1997 
L 3341 0 
L 2766 0 
L 2766 531 
Q 2569 213 2275 61 
Q 1981 -91 1556 -91 
Q 1019 -91 701 211 
Q 384 513 384 1019 
Q 384 1609 779 1909 
Q 1175 2209 1959 2209 
L 2766 2209 
L 2766 2266 
Q 2766 2663 2505 2880 
Q 2244 3097 1772 3097 
Q 1472 3097 1187 3025 
Q 903 2953 641 2809 
L 641 3341 
Q 956 3463 1253 3523 
Q 1550 3584 1831 3584 
Q 2591 3584 2966 3190 
Q 3341 2797 3341 1997 
z
" transform="scale(0.015625)"/>
       <path id="DejaVuSans-73" d="M 2834 3397 
L 2834 2853 
Q 2591 2978 2328 3040 
Q 2066 3103 1784 3103 
Q 1356 3103 1142 2972 
Q 928 2841 928 2578 
Q 928 2378 1081 2264 
Q 1234 2150 1697 2047 
L 1894 2003 
Q 2506 1872 2764 1633 
Q 3022 1394 3022 966 
Q 3022 478 2636 193 
Q 2250 -91 1575 -91 
Q 1294 -91 989 -36 
Q 684 19 347 128 
L 347 722 
Q 666 556 975 473 
Q 1284 391 1588 391 
Q 1994 391 2212 530 
Q 2431 669 2431 922 
Q 2431 1156 2273 1281 
Q 2116 1406 1581 1522 
L 1381 1569 
Q 847 1681 609 1914 
Q 372 2147 372 2553 
Q 372 3047 722 3315 
Q 1072 3584 1716 3584 
Q 2034 3584 2315 3537 
Q 2597 3491 2834 3397 
z
" transform="scale(0.015625)"/>
       <path id="DejaVuSans-29" d="M 513 4856 
L 1013 4856 
Q 1481 4119 1714 3412 
Q 1947 2706 1947 2009 
Q 1947 1309 1714 600 
Q 1481 -109 1013 -844 
L 513 -844 
Q 928 -128 1133 580 
Q 1338 1288 1338 2009 
Q 1338 2731 1133 3434 
Q 928 4138 513 4856 
z
" transform="scale(0.015625)"/>
      </defs>
      <use xlink:href="#DejaVuSans-41"/>
      <use xlink:href="#DejaVuSans-6d" x="68.408203"/>
      <use xlink:href="#DejaVuSans-70" x="165.820312"/>
      <use xlink:href="#DejaVuSans-6c" x="229.296875"/>
      <use xlink:href="#DejaVuSans-69" x="257.080078"/>
      <use xlink:href="#DejaVuSans-74" x="284.863281"/>
      <use xlink:href="#DejaVuSans-75" x="324.072266"/>
      <use xlink:href="#DejaVuSans-64" x="387.451172"/>
      <use xlink:href="#DejaVuSans-65" x="450.927734"/>
      <use xlink:href="#DejaVuSans-20" x="512.451172"/>
      <use xlink:href="#DejaVuSans-28" x="544.238281"/>
      <use xlink:href="#DejaVuSans-67" x="583.251953"/>
      <use xlink:href="#DejaVuSans-72" x="646.728516"/>
      <use xlink:href="#DejaVuSans-61" x="687.841797"/>
      <use xlink:href="#DejaVuSans-75" x="749.121094"/>
      <use xlink:href="#DejaVuSans-73" x="812.5"/>
      <use xlink:href="#DejaVuSans-29" x="864.599609"/>
     </g>
    </g>
   </g>
   <g id="matplotlib.axis_2">
    <g id="ytick_1">
     <g id="line2d_17">
      <path d="M 90 347.26583 
L 648 347.26583 
" clip-path="url(#p719e1975d8)" style="fill: none; stroke-dasharray: 2.96,1.28; stroke-dashoffset: 0; stroke: #b0b0b0; stroke-opacity: 0.7; stroke-width: 0.8"/>
     </g>
     <g id="line2d_18">
      <defs>
       <path id="mff51ad35e9" d="M 0 0 
L -3.5 0 
" style="stroke: #000000; stroke-width: 0.8"/>
      </defs>
      <g>
       <use xlink:href="#mff51ad35e9" x="90" y="347.26583" style="stroke: #000000; stroke-width: 0.8"/>
      </g>
     </g>
     <g id="text_10">
      <!-- 2.2 -->
      <g transform="translate(67.096875 351.065049) scale(0.1 -0.1)">
       <defs>
        <path id="DejaVuSans-2e" d="M 684 794 
L 1344 794 
L 1344 0 
L 684 0 
L 684 794 
z
" transform="scale(0.015625)"/>
       </defs>
       <use xlink:href="#DejaVuSans-32"/>
       <use xlink:href="#DejaVuSans-2e" x="63.623047"/>
       <use xlink:href="#DejaVuSans-32" x="95.410156"/>
      </g>
     </g>
    </g>
    <g id="ytick_2">
     <g id="line2d_19">
      <path d="M 90 302.631144 
L 648 302.631144 
" clip-path="url(#p719e1975d8)" style="fill: none; stroke-dasharray: 2.96,1.28; stroke-dashoffset: 0; stroke: #b0b0b0; stroke-opacity: 0.7; stroke-width: 0.8"/>
     </g>
     <g id="line2d_20">
      <g>
       <use xlink:href="#mff51ad35e9" x="90" y="302.631144" style="stroke: #000000; stroke-width: 0.8"/>
      </g>
     </g>
     <g id="text_11">
      <!-- 2.4 -->
      <g transform="translate(67.096875 306.430363) scale(0.1 -0.1)">
       <defs>
        <path id="DejaVuSans-34" d="M 2419 4116 
L 825 1625 
L 2419 1625 
L 2419 4116 
z
M 2253 4666 
L 3047 4666 
L 3047 1625 
L 3713 1625 
L 3713 1100 
L 3047 1100 
L 3047 0 
L 2419 0 
L 2419 1100 
L 313 1100 
L 313 1709 
L 2253 4666 
z
" transform="scale(0.015625)"/>
       </defs>
       <use xlink:href="#DejaVuSans-32"/>
       <use xlink:href="#DejaVuSans-2e" x="63.623047"/>
       <use xlink:href="#DejaVuSans-34" x="95.410156"/>
      </g>
     </g>
    </g>
    <g id="ytick_3">
     <g id="line2d_21">
      <path d="M 90 257.996458 
L 648 257.996458 
" clip-path="url(#p719e1975d8)" style="fill: none; stroke-dasharray: 2.96,1.28; stroke-dashoffset: 0; stroke: #b0b0b0; stroke-opacity: 0.7; stroke-width: 0.8"/>
     </g>
     <g id="line2d_22">
      <g>
       <use xlink:href="#mff51ad35e9" x="90" y="257.996458" style="stroke: #000000; stroke-width: 0.8"/>
      </g>
     </g>
     <g id="text_12">
      <!-- 2.6 -->
      <g transform="translate(67.096875 261.795676) scale(0.1 -0.1)">
       <defs>
        <path id="DejaVuSans-36" d="M 2113 2584 
Q 1688 2584 1439 2293 
Q 1191 2003 1191 1497 
Q 1191 994 1439 701 
Q 1688 409 2113 409 
Q 2538 409 2786 701 
Q 3034 994 3034 1497 
Q 3034 2003 2786 2293 
Q 2538 2584 2113 2584 
z
M 3366 4563 
L 3366 3988 
Q 3128 4100 2886 4159 
Q 2644 4219 2406 4219 
Q 1781 4219 1451 3797 
Q 1122 3375 1075 2522 
Q 1259 2794 1537 2939 
Q 1816 3084 2150 3084 
Q 2853 3084 3261 2657 
Q 3669 2231 3669 1497 
Q 3669 778 3244 343 
Q 2819 -91 2113 -91 
Q 1303 -91 875 529 
Q 447 1150 447 2328 
Q 447 3434 972 4092 
Q 1497 4750 2381 4750 
Q 2619 4750 2861 4703 
Q 3103 4656 3366 4563 
z
" transform="scale(0.015625)"/>
       </defs>
       <use xlink:href="#DejaVuSans-32"/>
       <use xlink:href="#DejaVuSans-2e" x="63.623047"/>
       <use xlink:href="#DejaVuSans-36" x="95.410156"/>
      </g>
     </g>
    </g>
    <g id="ytick_4">
     <g id="line2d_23">
      <path d="M 90 213.361771 
L 648 213.361771 
" clip-path="url(#p719e1975d8)" style="fill: none; stroke-dasharray: 2.96,1.28; stroke-dashoffset: 0; stroke: #b0b0b0; stroke-opacity: 0.7; stroke-width: 0.8"/>
     </g>
     <g id="line2d_24">
      <g>
       <use xlink:href="#mff51ad35e9" x="90" y="213.361771" style="stroke: #000000; stroke-width: 0.8"/>
      </g>
     </g>
     <g id="text_13">
      <!-- 2.8 -->
      <g transform="translate(67.096875 217.16099) scale(0.1 -0.1)">
       <defs>
        <path id="DejaVuSans-38" d="M 2034 2216 
Q 1584 2216 1326 1975 
Q 1069 1734 1069 1313 
Q 1069 891 1326 650 
Q 1584 409 2034 409 
Q 2484 409 2743 651 
Q 3003 894 3003 1313 
Q 3003 1734 2745 1975 
Q 2488 2216 2034 2216 
z
M 1403 2484 
Q 997 2584 770 2862 
Q 544 3141 544 3541 
Q 544 4100 942 4425 
Q 1341 4750 2034 4750 
Q 2731 4750 3128 4425 
Q 3525 4100 3525 3541 
Q 3525 3141 3298 2862 
Q 3072 2584 2669 2484 
Q 3125 2378 3379 2068 
Q 3634 1759 3634 1313 
Q 3634 634 3220 271 
Q 2806 -91 2034 -91 
Q 1263 -91 848 271 
Q 434 634 434 1313 
Q 434 1759 690 2068 
Q 947 2378 1403 2484 
z
M 1172 3481 
Q 1172 3119 1398 2916 
Q 1625 2713 2034 2713 
Q 2441 2713 2670 2916 
Q 2900 3119 2900 3481 
Q 2900 3844 2670 4047 
Q 2441 4250 2034 4250 
Q 1625 4250 1398 4047 
Q 1172 3844 1172 3481 
z
" transform="scale(0.015625)"/>
       </defs>
       <use xlink:href="#DejaVuSans-32"/>
       <use xlink:href="#DejaVuSans-2e" x="63.623047"/>
       <use xlink:href="#DejaVuSans-38" x="95.410156"/>
      </g>
     </g>
    </g>
    <g id="ytick_5">
     <g id="line2d_25">
      <path d="M 90 168.727085 
L 648 168.727085 
" clip-path="url(#p719e1975d8)" style="fill: none; stroke-dasharray: 2.96,1.28; stroke-dashoffset: 0; stroke: #b0b0b0; stroke-opacity: 0.7; stroke-width: 0.8"/>
     </g>
     <g id="line2d_26">
      <g>
       <use xlink:href="#mff51ad35e9" x="90" y="168.727085" style="stroke: #000000; stroke-width: 0.8"/>
      </g>
     </g>
     <g id="text_14">
      <!-- 3.0 -->
      <g transform="translate(67.096875 172.526304) scale(0.1 -0.1)">
       <use xlink:href="#DejaVuSans-33"/>
       <use xlink:href="#DejaVuSans-2e" x="63.623047"/>
       <use xlink:href="#DejaVuSans-30" x="95.410156"/>
      </g>
     </g>
    </g>
    <g id="ytick_6">
     <g id="line2d_27">
      <path d="M 90 124.092399 
L 648 124.092399 
" clip-path="url(#p719e1975d8)" style="fill: none; stroke-dasharray: 2.96,1.28; stroke-dashoffset: 0; stroke: #b0b0b0; stroke-opacity: 0.7; stroke-width: 0.8"/>
     </g>
     <g id="line2d_28">
      <g>
       <use xlink:href="#mff51ad35e9" x="90" y="124.092399" style="stroke: #000000; stroke-width: 0.8"/>
      </g>
     </g>
     <g id="text_15">
      <!-- 3.2 -->
      <g transform="translate(67.096875 127.891617) scale(0.1 -0.1)">
       <use xlink:href="#DejaVuSans-33"/>
       <use xlink:href="#DejaVuSans-2e" x="63.623047"/>
       <use xlink:href="#DejaVuSans-32" x="95.410156"/>
      </g>
     </g>
    </g>
    <g id="ytick_7">
     <g id="line2d_29">
      <path d="M 90 79.457712 
L 648 79.457712 
" clip-path="url(#p719e1975d8)" style="fill: none; stroke-dasharray: 2.96,1.28; stroke-dashoffset: 0; stroke: #b0b0b0; stroke-opacity: 0.7; stroke-width: 0.8"/>
     </g>
     <g id="line2d_30">
      <g>
       <use xlink:href="#mff51ad35e9" x="90" y="79.457712" style="stroke: #000000; stroke-width: 0.8"/>
      </g>
     </g>
     <g id="text_16">
      <!-- 3.4 -->
      <g transform="translate(67.096875 83.256931) scale(0.1 -0.1)">
       <use xlink:href="#DejaVuSans-33"/>
       <use xlink:href="#DejaVuSans-2e" x="63.623047"/>
       <use xlink:href="#DejaVuSans-34" x="95.410156"/>
      </g>
     </g>
    </g>
    <g id="text_17">
     <!-- Velocidade máxima (rad/s) -->
     <g transform="translate(61.017187 285.224844) rotate(-90) scale(0.1 -0.1)">
      <defs>
       <path id="DejaVuSans-56" d="M 1831 0 
L 50 4666 
L 709 4666 
L 2188 738 
L 3669 4666 
L 4325 4666 
L 2547 0 
L 1831 0 
z
" transform="scale(0.015625)"/>
       <path id="DejaVuSans-6f" d="M 1959 3097 
Q 1497 3097 1228 2736 
Q 959 2375 959 1747 
Q 959 1119 1226 758 
Q 1494 397 1959 397 
Q 2419 397 2687 759 
Q 2956 1122 2956 1747 
Q 2956 2369 2687 2733 
Q 2419 3097 1959 3097 
z
M 1959 3584 
Q 2709 3584 3137 3096 
Q 3566 2609 3566 1747 
Q 3566 888 3137 398 
Q 2709 -91 1959 -91 
Q 1206 -91 779 398 
Q 353 888 353 1747 
Q 353 2609 779 3096 
Q 1206 3584 1959 3584 
z
" transform="scale(0.015625)"/>
       <path id="DejaVuSans-63" d="M 3122 3366 
L 3122 2828 
Q 2878 2963 2633 3030 
Q 2388 3097 2138 3097 
Q 1578 3097 1268 2742 
Q 959 2388 959 1747 
Q 959 1106 1268 751 
Q 1578 397 2138 397 
Q 2388 397 2633 464 
Q 2878 531 3122 666 
L 3122 134 
Q 2881 22 2623 -34 
Q 2366 -91 2075 -91 
Q 1284 -91 818 406 
Q 353 903 353 1747 
Q 353 2603 823 3093 
Q 1294 3584 2113 3584 
Q 2378 3584 2631 3529 
Q 2884 3475 3122 3366 
z
" transform="scale(0.015625)"/>
       <path id="DejaVuSans-e1" d="M 2194 1759 
Q 1497 1759 1228 1600 
Q 959 1441 959 1056 
Q 959 750 1161 570 
Q 1363 391 1709 391 
Q 2188 391 2477 730 
Q 2766 1069 2766 1631 
L 2766 1759 
L 2194 1759 
z
M 3341 1997 
L 3341 0 
L 2766 0 
L 2766 531 
Q 2569 213 2275 61 
Q 1981 -91 1556 -91 
Q 1019 -91 701 211 
Q 384 513 384 1019 
Q 384 1609 779 1909 
Q 1175 2209 1959 2209 
L 2766 2209 
L 2766 2266 
Q 2766 2663 2505 2880 
Q 2244 3097 1772 3097 
Q 1472 3097 1187 3025 
Q 903 2953 641 2809 
L 641 3341 
Q 956 3463 1253 3523 
Q 1550 3584 1831 3584 
Q 2591 3584 2966 3190 
Q 3341 2797 3341 1997 
z
M 2290 5119 
L 2912 5119 
L 1894 3944 
L 1415 3944 
L 2290 5119 
z
" transform="scale(0.015625)"/>
       <path id="DejaVuSans-78" d="M 3513 3500 
L 2247 1797 
L 3578 0 
L 2900 0 
L 1881 1375 
L 863 0 
L 184 0 
L 1544 1831 
L 300 3500 
L 978 3500 
L 1906 2253 
L 2834 3500 
L 3513 3500 
z
" transform="scale(0.015625)"/>
       <path id="DejaVuSans-2f" d="M 1625 4666 
L 2156 4666 
L 531 -594 
L 0 -594 
L 1625 4666 
z
" transform="scale(0.015625)"/>
      </defs>
      <use xlink:href="#DejaVuSans-56"/>
      <use xlink:href="#DejaVuSans-65" x="60.658203"/>
      <use xlink:href="#DejaVuSans-6c" x="122.181641"/>
      <use xlink:href="#DejaVuSans-6f" x="149.964844"/>
      <use xlink:href="#DejaVuSans-63" x="211.146484"/>
      <use xlink:href="#DejaVuSans-69" x="266.126953"/>
      <use xlink:href="#DejaVuSans-64" x="293.910156"/>
      <use xlink:href="#DejaVuSans-61" x="357.386719"/>
      <use xlink:href="#DejaVuSans-64" x="418.666016"/>
      <use xlink:href="#DejaVuSans-65" x="482.142578"/>
      <use xlink:href="#DejaVuSans-20" x="543.666016"/>
      <use xlink:href="#DejaVuSans-6d" x="575.453125"/>
      <use xlink:href="#DejaVuSans-e1" x="672.865234"/>
      <use xlink:href="#DejaVuSans-78" x="734.144531"/>
      <use xlink:href="#DejaVuSans-69" x="793.324219"/>
      <use xlink:href="#DejaVuSans-6d" x="821.107422"/>
      <use xlink:href="#DejaVuSans-61" x="918.519531"/>
      <use xlink:href="#DejaVuSans-20" x="979.798828"/>
      <use xlink:href="#DejaVuSans-28" x="1011.585938"/>
      <use xlink:href="#DejaVuSans-72" x="1050.599609"/>
      <use xlink:href="#DejaVuSans-61" x="1091.712891"/>
      <use xlink:href="#DejaVuSans-64" x="1152.992188"/>
      <use xlink:href="#DejaVuSans-2f" x="1216.46875"/>
      <use xlink:href="#DejaVuSans-73" x="1250.160156"/>
      <use xlink:href="#DejaVuSans-29" x="1302.259766"/>
     </g>
    </g>
   </g>
   <g id="line2d_31">
    <path d="M 622.636364 75.886937 
L 593.873477 71.423469 
L 573.826617 66.96 
L 579.056232 69.638081 
L 572.083411 75.44059 
L 559.880975 82.135793 
L 552.036551 88.830996 
L 540.705717 95.303026 
L 523.273664 101.551882 
L 501.483599 109.139779 
L 476.207123 118.736236 
L 475.33552 132.796162 
L 483.179944 152.881771 
L 482.308341 148.195129 
L 470.105904 140.830406 
L 441.343018 143.508487 
L 425.654171 158.68428 
L 439.599813 179.43941 
L 431.755389 163.817269 
L 391.661668 166.941697 
L 406.478913 193.722509 
L 405.60731 181.224797 
L 362.898782 182.787011 
L 386.432052 214.254465 
L 372.48641 191.713948 
L 353.311153 205.773875 
L 364.641987 209.567823 
L 319.31865 207.782435 
L 348.95314 227.198524 
L 312.345829 215.147159 
L 334.135895 241.481624 
L 300.143393 223.404576 
L 319.31865 249.515867 
L 280.968135 232.554686 
L 305.373008 253.086642 
L 265.279288 242.820664 
L 290.555764 253.309815 
L 268.765698 257.103764 
L 268.765698 254.202509 
L 268.765698 279.197934 
L 233.901593 260.897712 
L 257.434864 275.627159 
L 240.002812 277.858893 
L 228.671978 272.056384 
L 240.002812 293.92738 
L 216.469541 285.223616 
L 213.854733 284.107749 
L 221.699157 305.086052 
L 201.652296 297.498155 
L 192.064667 293.92738 
L 204.267104 309.772694 
L 192.93627 314.236162 
L 160.686973 304.416531 
L 180.733833 311.334908 
L 183.348641 331.420517 
L 166.788191 321.824059 
L 142.383318 317.36059 
L 161.558575 324.278967 
L 163.301781 342.579188 
L 151.099344 336.553506 
L 124.951265 330.750996 
L 132.795689 333.652251 
L 141.511715 345.480443 
L 138.025305 360.87941 
L 124.951265 349.274391 
L 115.363636 356.192768 
L 116.235239 369.36 
" clip-path="url(#p719e1975d8)" style="fill: none; stroke: #1f77b4; stroke-width: 1.5; stroke-linecap: square"/>
    <defs>
     <path id="mc1d944b47a" d="M 0 2 
C 0.530406 2 1.03916 1.789267 1.414214 1.414214 
C 1.789267 1.03916 2 0.530406 2 0 
C 2 -0.530406 1.789267 -1.03916 1.414214 -1.414214 
C 1.03916 -1.789267 0.530406 -2 0 -2 
C -0.530406 -2 -1.03916 -1.789267 -1.414214 -1.414214 
C -1.789267 -1.03916 -2 -0.530406 -2 0 
C -2 0.530406 -1.789267 1.03916 -1.414214 1.414214 
C -1.03916 1.789267 -0.530406 2 0 2 
z
" style="stroke: #1f77b4"/>
    </defs>
    <g clip-path="url(#p719e1975d8)">
     <use xlink:href="#mc1d944b47a" x="622.636364" y="75.886937" style="fill: #1f77b4; stroke: #1f77b4"/>
     <use xlink:href="#mc1d944b47a" x="593.873477" y="71.423469" style="fill: #1f77b4; stroke: #1f77b4"/>
     <use xlink:href="#mc1d944b47a" x="573.826617" y="66.96" style="fill: #1f77b4; stroke: #1f77b4"/>
     <use xlink:href="#mc1d944b47a" x="579.056232" y="69.638081" style="fill: #1f77b4; stroke: #1f77b4"/>
     <use xlink:href="#mc1d944b47a" x="572.083411" y="75.44059" style="fill: #1f77b4; stroke: #1f77b4"/>
     <use xlink:href="#mc1d944b47a" x="559.880975" y="82.135793" style="fill: #1f77b4; stroke: #1f77b4"/>
     <use xlink:href="#mc1d944b47a" x="552.036551" y="88.830996" style="fill: #1f77b4; stroke: #1f77b4"/>
     <use xlink:href="#mc1d944b47a" x="540.705717" y="95.303026" style="fill: #1f77b4; stroke: #1f77b4"/>
     <use xlink:href="#mc1d944b47a" x="523.273664" y="101.551882" style="fill: #1f77b4; stroke: #1f77b4"/>
     <use xlink:href="#mc1d944b47a" x="501.483599" y="109.139779" style="fill: #1f77b4; stroke: #1f77b4"/>
     <use xlink:href="#mc1d944b47a" x="476.207123" y="118.736236" style="fill: #1f77b4; stroke: #1f77b4"/>
     <use xlink:href="#mc1d944b47a" x="475.33552" y="132.796162" style="fill: #1f77b4; stroke: #1f77b4"/>
     <use xlink:href="#mc1d944b47a" x="483.179944" y="152.881771" style="fill: #1f77b4; stroke: #1f77b4"/>
     <use xlink:href="#mc1d944b47a" x="482.308341" y="148.195129" style="fill: #1f77b4; stroke: #1f77b4"/>
     <use xlink:href="#mc1d944b47a" x="470.105904" y="140.830406" style="fill: #1f77b4; stroke: #1f77b4"/>
     <use xlink:href="#mc1d944b47a" x="441.343018" y="143.508487" style="fill: #1f77b4; stroke: #1f77b4"/>
     <use xlink:href="#mc1d944b47a" x="425.654171" y="158.68428" style="fill: #1f77b4; stroke: #1f77b4"/>
     <use xlink:href="#mc1d944b47a" x="439.599813" y="179.43941" style="fill: #1f77b4; stroke: #1f77b4"/>
     <use xlink:href="#mc1d944b47a" x="431.755389" y="163.817269" style="fill: #1f77b4; stroke: #1f77b4"/>
     <use xlink:href="#mc1d944b47a" x="391.661668" y="166.941697" style="fill: #1f77b4; stroke: #1f77b4"/>
     <use xlink:href="#mc1d944b47a" x="406.478913" y="193.722509" style="fill: #1f77b4; stroke: #1f77b4"/>
     <use xlink:href="#mc1d944b47a" x="405.60731" y="181.224797" style="fill: #1f77b4; stroke: #1f77b4"/>
     <use xlink:href="#mc1d944b47a" x="362.898782" y="182.787011" style="fill: #1f77b4; stroke: #1f77b4"/>
     <use xlink:href="#mc1d944b47a" x="386.432052" y="214.254465" style="fill: #1f77b4; stroke: #1f77b4"/>
     <use xlink:href="#mc1d944b47a" x="372.48641" y="191.713948" style="fill: #1f77b4; stroke: #1f77b4"/>
     <use xlink:href="#mc1d944b47a" x="353.311153" y="205.773875" style="fill: #1f77b4; stroke: #1f77b4"/>
     <use xlink:href="#mc1d944b47a" x="364.641987" y="209.567823" style="fill: #1f77b4; stroke: #1f77b4"/>
     <use xlink:href="#mc1d944b47a" x="319.31865" y="207.782435" style="fill: #1f77b4; stroke: #1f77b4"/>
     <use xlink:href="#mc1d944b47a" x="348.95314" y="227.198524" style="fill: #1f77b4; stroke: #1f77b4"/>
     <use xlink:href="#mc1d944b47a" x="312.345829" y="215.147159" style="fill: #1f77b4; stroke: #1f77b4"/>
     <use xlink:href="#mc1d944b47a" x="334.135895" y="241.481624" style="fill: #1f77b4; stroke: #1f77b4"/>
     <use xlink:href="#mc1d944b47a" x="300.143393" y="223.404576" style="fill: #1f77b4; stroke: #1f77b4"/>
     <use xlink:href="#mc1d944b47a" x="319.31865" y="249.515867" style="fill: #1f77b4; stroke: #1f77b4"/>
     <use xlink:href="#mc1d944b47a" x="280.968135" y="232.554686" style="fill: #1f77b4; stroke: #1f77b4"/>
     <use xlink:href="#mc1d944b47a" x="305.373008" y="253.086642" style="fill: #1f77b4; stroke: #1f77b4"/>
     <use xlink:href="#mc1d944b47a" x="265.279288" y="242.820664" style="fill: #1f77b4; stroke: #1f77b4"/>
     <use xlink:href="#mc1d944b47a" x="290.555764" y="253.309815" style="fill: #1f77b4; stroke: #1f77b4"/>
     <use xlink:href="#mc1d944b47a" x="268.765698" y="257.103764" style="fill: #1f77b4; stroke: #1f77b4"/>
     <use xlink:href="#mc1d944b47a" x="268.765698" y="254.202509" style="fill: #1f77b4; stroke: #1f77b4"/>
     <use xlink:href="#mc1d944b47a" x="268.765698" y="279.197934" style="fill: #1f77b4; stroke: #1f77b4"/>
     <use xlink:href="#mc1d944b47a" x="233.901593" y="260.897712" style="fill: #1f77b4; stroke: #1f77b4"/>
     <use xlink:href="#mc1d944b47a" x="257.434864" y="275.627159" style="fill: #1f77b4; stroke: #1f77b4"/>
     <use xlink:href="#mc1d944b47a" x="240.002812" y="277.858893" style="fill: #1f77b4; stroke: #1f77b4"/>
     <use xlink:href="#mc1d944b47a" x="228.671978" y="272.056384" style="fill: #1f77b4; stroke: #1f77b4"/>
     <use xlink:href="#mc1d944b47a" x="240.002812" y="293.92738" style="fill: #1f77b4; stroke: #1f77b4"/>
     <use xlink:href="#mc1d944b47a" x="216.469541" y="285.223616" style="fill: #1f77b4; stroke: #1f77b4"/>
     <use xlink:href="#mc1d944b47a" x="213.854733" y="284.107749" style="fill: #1f77b4; stroke: #1f77b4"/>
     <use xlink:href="#mc1d944b47a" x="221.699157" y="305.086052" style="fill: #1f77b4; stroke: #1f77b4"/>
     <use xlink:href="#mc1d944b47a" x="201.652296" y="297.498155" style="fill: #1f77b4; stroke: #1f77b4"/>
     <use xlink:href="#mc1d944b47a" x="192.064667" y="293.92738" style="fill: #1f77b4; stroke: #1f77b4"/>
     <use xlink:href="#mc1d944b47a" x="204.267104" y="309.772694" style="fill: #1f77b4; stroke: #1f77b4"/>
     <use xlink:href="#mc1d944b47a" x="192.93627" y="314.236162" style="fill: #1f77b4; stroke: #1f77b4"/>
     <use xlink:href="#mc1d944b47a" x="160.686973" y="304.416531" style="fill: #1f77b4; stroke: #1f77b4"/>
     <use xlink:href="#mc1d944b47a" x="180.733833" y="311.334908" style="fill: #1f77b4; stroke: #1f77b4"/>
     <use xlink:href="#mc1d944b47a" x="183.348641" y="331.420517" style="fill: #1f77b4; stroke: #1f77b4"/>
     <use xlink:href="#mc1d944b47a" x="166.788191" y="321.824059" style="fill: #1f77b4; stroke: #1f77b4"/>
     <use xlink:href="#mc1d944b47a" x="142.383318" y="317.36059" style="fill: #1f77b4; stroke: #1f77b4"/>
     <use xlink:href="#mc1d944b47a" x="161.558575" y="324.278967" style="fill: #1f77b4; stroke: #1f77b4"/>
     <use xlink:href="#mc1d944b47a" x="163.301781" y="342.579188" style="fill: #1f77b4; stroke: #1f77b4"/>
     <use xlink:href="#mc1d944b47a" x="151.099344" y="336.553506" style="fill: #1f77b4; stroke: #1f77b4"/>
     <use xlink:href="#mc1d944b47a" x="124.951265" y="330.750996" style="fill: #1f77b4; stroke: #1f77b4"/>
     <use xlink:href="#mc1d944b47a" x="132.795689" y="333.652251" style="fill: #1f77b4; stroke: #1f77b4"/>
     <use xlink:href="#mc1d944b47a" x="141.511715" y="345.480443" style="fill: #1f77b4; stroke: #1f77b4"/>
     <use xlink:href="#mc1d944b47a" x="138.025305" y="360.87941" style="fill: #1f77b4; stroke: #1f77b4"/>
     <use xlink:href="#mc1d944b47a" x="124.951265" y="349.274391" style="fill: #1f77b4; stroke: #1f77b4"/>
     <use xlink:href="#mc1d944b47a" x="115.363636" y="356.192768" style="fill: #1f77b4; stroke: #1f77b4"/>
     <use xlink:href="#mc1d944b47a" x="116.235239" y="369.36" style="fill: #1f77b4; stroke: #1f77b4"/>
    </g>
   </g>
   <g id="patch_3">
    <path d="M 90 384.48 
L 90 51.84 
" style="fill: none; stroke: #000000; stroke-width: 0.8; stroke-linejoin: miter; stroke-linecap: square"/>
   </g>
   <g id="patch_4">
    <path d="M 648 384.48 
L 648 51.84 
" style="fill: none; stroke: #000000; stroke-width: 0.8; stroke-linejoin: miter; stroke-linecap: square"/>
   </g>
   <g id="patch_5">
    <path d="M 90 384.48 
L 648 384.48 
" style="fill: none; stroke: #000000; stroke-width: 0.8; stroke-linejoin: miter; stroke-linecap: square"/>
   </g>
   <g id="patch_6">
    <path d="M 90 51.84 
L 648 51.84 
" style="fill: none; stroke: #000000; stroke-width: 0.8; stroke-linejoin: miter; stroke-linecap: square"/>
   </g>
   <g id="text_18">
    <!-- Velocidade máxima vs Amplitude (amp ≥ -35°) -->
    <g transform="translate(227.412188 45.84) scale(0.12 -0.12)">
     <defs>
      <path id="DejaVuSans-76" d="M 191 3500 
L 800 3500 
L 1894 563 
L 2988 3500 
L 3597 3500 
L 2284 0 
L 1503 0 
L 191 3500 
z
" transform="scale(0.015625)"/>
      <path id="DejaVuSans-2265" d="M 678 3175 
L 678 3725 
L 4684 2578 
L 4684 2047 
L 678 897 
L 678 1453 
L 3681 2309 
L 678 3175 
z
M 4684 531 
L 4684 0 
L 678 0 
L 678 531 
L 4684 531 
z
" transform="scale(0.015625)"/>
      <path id="DejaVuSans-2d" d="M 313 2009 
L 1997 2009 
L 1997 1497 
L 313 1497 
L 313 2009 
z
" transform="scale(0.015625)"/>
      <path id="DejaVuSans-b0" d="M 1600 4347 
Q 1350 4347 1178 4173 
Q 1006 4000 1006 3750 
Q 1006 3503 1178 3333 
Q 1350 3163 1600 3163 
Q 1850 3163 2022 3333 
Q 2194 3503 2194 3750 
Q 2194 3997 2020 4172 
Q 1847 4347 1600 4347 
z
M 1600 4750 
Q 1800 4750 1984 4673 
Q 2169 4597 2303 4453 
Q 2447 4313 2519 4134 
Q 2591 3956 2591 3750 
Q 2591 3338 2302 3052 
Q 2013 2766 1594 2766 
Q 1172 2766 890 3047 
Q 609 3328 609 3750 
Q 609 4169 896 4459 
Q 1184 4750 1600 4750 
z
" transform="scale(0.015625)"/>
     </defs>
     <use xlink:href="#DejaVuSans-56"/>
     <use xlink:href="#DejaVuSans-65" x="60.658203"/>
     <use xlink:href="#DejaVuSans-6c" x="122.181641"/>
     <use xlink:href="#DejaVuSans-6f" x="149.964844"/>
     <use xlink:href="#DejaVuSans-63" x="211.146484"/>
     <use xlink:href="#DejaVuSans-69" x="266.126953"/>
     <use xlink:href="#DejaVuSans-64" x="293.910156"/>
     <use xlink:href="#DejaVuSans-61" x="357.386719"/>
     <use xlink:href="#DejaVuSans-64" x="418.666016"/>
     <use xlink:href="#DejaVuSans-65" x="482.142578"/>
     <use xlink:href="#DejaVuSans-20" x="543.666016"/>
     <use xlink:href="#DejaVuSans-6d" x="575.453125"/>
     <use xlink:href="#DejaVuSans-e1" x="672.865234"/>
     <use xlink:href="#DejaVuSans-78" x="734.144531"/>
     <use xlink:href="#DejaVuSans-69" x="793.324219"/>
     <use xlink:href="#DejaVuSans-6d" x="821.107422"/>
     <use xlink:href="#DejaVuSans-61" x="918.519531"/>
     <use xlink:href="#DejaVuSans-20" x="979.798828"/>
     <use xlink:href="#DejaVuSans-76" x="1011.585938"/>
     <use xlink:href="#DejaVuSans-73" x="1070.765625"/>
     <use xlink:href="#DejaVuSans-20" x="1122.865234"/>
     <use xlink:href="#DejaVuSans-41" x="1154.652344"/>
     <use xlink:href="#DejaVuSans-6d" x="1223.060547"/>
     <use xlink:href="#DejaVuSans-70" x="1320.472656"/>
     <use xlink:href="#DejaVuSans-6c" x="1383.949219"/>
     <use xlink:href="#DejaVuSans-69" x="1411.732422"/>
     <use xlink:href="#DejaVuSans-74" x="1439.515625"/>
     <use xlink:href="#DejaVuSans-75" x="1478.724609"/>
     <use xlink:href="#DejaVuSans-64" x="1542.103516"/>
     <use xlink:href="#DejaVuSans-65" x="1605.580078"/>
     <use xlink:href="#DejaVuSans-20" x="1667.103516"/>
     <use xlink:href="#DejaVuSans-28" x="1698.890625"/>
     <use xlink:href="#DejaVuSans-61" x="1737.904297"/>
     <use xlink:href="#DejaVuSans-6d" x="1799.183594"/>
     <use xlink:href="#DejaVuSans-70" x="1896.595703"/>
     <use xlink:href="#DejaVuSans-20" x="1960.072266"/>
     <use xlink:href="#DejaVuSans-2265" x="1991.859375"/>
     <use xlink:href="#DejaVuSans-20" x="2075.648438"/>
     <use xlink:href="#DejaVuSans-2d" x="2107.435547"/>
     <use xlink:href="#DejaVuSans-33" x="2143.519531"/>
     <use xlink:href="#DejaVuSans-35" x="2207.142578"/>
     <use xlink:href="#DejaVuSans-b0" x="2270.765625"/>
     <use xlink:href="#DejaVuSans-29" x="2320.765625"/>
    </g>
   </g>
  </g>
 </g>
 <defs>
  <clipPath id="p719e1975d8">
   <rect x="90" y="51.84" width="558" height="332.64"/>
  </clipPath>
 </defs>
</svg>
