<?xml version="1.0" encoding="utf-8" standalone="no"?>
<!DOCTYPE svg PUBLIC "-//W3C//DTD SVG 1.1//EN"
  "http://www.w3.org/Graphics/SVG/1.1/DTD/svg11.dtd">
<svg xmlns:xlink="http://www.w3.org/1999/xlink" width="720pt" height="432pt" viewBox="0 0 720 432" xmlns="http://www.w3.org/2000/svg" version="1.1">
 <metadata>
  <rdf:RDF xmlns:dc="http://purl.org/dc/elements/1.1/" xmlns:cc="http://creativecommons.org/ns#" xmlns:rdf="http://www.w3.org/1999/02/22-rdf-syntax-ns#">
   <cc:Work>
    <dc:type rdf:resource="http://purl.org/dc/dcmitype/StillImage"/>
    <dc:date>2025-11-17T22:02:19.263557</dc:date>
    <dc:format>image/svg+xml</dc:format>
    <dc:creator>
     <cc:Agent>
      <dc:title>Matplotlib v3.9.2, https://matplotlib.org/</dc:title>
     </cc:Agent>
    </dc:creator>
   </cc:Work>
  </rdf:RDF>
 </metadata>
 <defs>
  <style type="text/css">*{stroke-linejoin: round; stroke-linecap: butt}</style>
 </defs>
 <g id="figure_1">
  <g id="patch_1">
   <path d="M 0 432 
L 720 432 
L 720 0 
L 0 0 
z
" style="fill: #ffffff"/>
  </g>
  <g id="axes_1">
   <g id="patch_2">
    <path d="M 90 384.48 
L 648 384.48 
L 648 51.84 
L 90 51.84 
z
" style="fill: #ffffff"/>
   </g>
   <g id="matplotlib.axis_1">
    <g id="xtick_1">
     <g id="line2d_1">
      <path d="M 115.025229 384.48 
L 115.025229 51.84 
" clip-path="url(#p5cd8a01406)" style="fill: none; stroke-dasharray: 2.96,1.28; stroke-dashoffset: 0; stroke: #b0b0b0; stroke-opacity: 0.7; stroke-width: 0.8"/>
     </g>
     <g id="line2d_2">
      <defs>
       <path id="m89aa1a28b4" d="M 0 0 
L 0 3.5 
" style="stroke: #000000; stroke-width: 0.8"/>
      </defs>
      <g>
       <use xlink:href="#m89aa1a28b4" x="115.025229" y="384.48" style="stroke: #000000; stroke-width: 0.8"/>
      </g>
     </g>
     <g id="text_1">
      <!-- 0 -->
      <g transform="translate(108.662729 406.676875) scale(0.2 -0.2)">
       <defs>
        <path id="DejaVuSans-30" d="M 2034 4250 
Q 1547 4250 1301 3770 
Q 1056 3291 1056 2328 
Q 1056 1369 1301 889 
Q 1547 409 2034 409 
Q 2525 409 2770 889 
Q 3016 1369 3016 2328 
Q 3016 3291 2770 3770 
Q 2525 4250 2034 4250 
z
M 2034 4750 
Q 2819 4750 3233 4129 
Q 3647 3509 3647 2328 
Q 3647 1150 3233 529 
Q 2819 -91 2034 -91 
Q 1250 -91 836 529 
Q 422 1150 422 2328 
Q 422 3509 836 4129 
Q 1250 4750 2034 4750 
z
" transform="scale(0.015625)"/>
       </defs>
       <use xlink:href="#DejaVuSans-30"/>
      </g>
     </g>
    </g>
    <g id="xtick_2">
     <g id="line2d_3">
      <path d="M 199.627085 384.48 
L 199.627085 51.84 
" clip-path="url(#p5cd8a01406)" style="fill: none; stroke-dasharray: 2.96,1.28; stroke-dashoffset: 0; stroke: #b0b0b0; stroke-opacity: 0.7; stroke-width: 0.8"/>
     </g>
     <g id="line2d_4">
      <g>
       <use xlink:href="#m89aa1a28b4" x="199.627085" y="384.48" style="stroke: #000000; stroke-width: 0.8"/>
      </g>
     </g>
     <g id="text_2">
      <!-- 50 -->
      <g transform="translate(186.902085 406.676875) scale(0.2 -0.2)">
       <defs>
        <path id="DejaVuSans-35" d="M 691 4666 
L 3169 4666 
L 3169 4134 
L 1269 4134 
L 1269 2991 
Q 1406 3038 1543 3061 
Q 1681 3084 1819 3084 
Q 2600 3084 3056 2656 
Q 3513 2228 3513 1497 
Q 3513 744 3044 326 
Q 2575 -91 1722 -91 
Q 1428 -91 1123 -41 
Q 819 9 494 109 
L 494 744 
Q 775 591 1075 516 
Q 1375 441 1709 441 
Q 2250 441 2565 725 
Q 2881 1009 2881 1497 
Q 2881 1984 2565 2268 
Q 2250 2553 1709 2553 
Q 1456 2553 1204 2497 
Q 953 2441 691 2322 
L 691 4666 
z
" transform="scale(0.015625)"/>
       </defs>
       <use xlink:href="#DejaVuSans-35"/>
       <use xlink:href="#DejaVuSans-30" x="63.623047"/>
      </g>
     </g>
    </g>
    <g id="xtick_3">
     <g id="line2d_5">
      <path d="M 284.228941 384.48 
L 284.228941 51.84 
" clip-path="url(#p5cd8a01406)" style="fill: none; stroke-dasharray: 2.96,1.28; stroke-dashoffset: 0; stroke: #b0b0b0; stroke-opacity: 0.7; stroke-width: 0.8"/>
     </g>
     <g id="line2d_6">
      <g>
       <use xlink:href="#m89aa1a28b4" x="284.228941" y="384.48" style="stroke: #000000; stroke-width: 0.8"/>
      </g>
     </g>
     <g id="text_3">
      <!-- 100 -->
      <g transform="translate(265.141441 406.676875) scale(0.2 -0.2)">
       <defs>
        <path id="DejaVuSans-31" d="M 794 531 
L 1825 531 
L 1825 4091 
L 703 3866 
L 703 4441 
L 1819 4666 
L 2450 4666 
L 2450 531 
L 3481 531 
L 3481 0 
L 794 0 
L 794 531 
z
" transform="scale(0.015625)"/>
       </defs>
       <use xlink:href="#DejaVuSans-31"/>
       <use xlink:href="#DejaVuSans-30" x="63.623047"/>
       <use xlink:href="#DejaVuSans-30" x="127.246094"/>
      </g>
     </g>
    </g>
    <g id="xtick_4">
     <g id="line2d_7">
      <path d="M 368.830796 384.48 
L 368.830796 51.84 
" clip-path="url(#p5cd8a01406)" style="fill: none; stroke-dasharray: 2.96,1.28; stroke-dashoffset: 0; stroke: #b0b0b0; stroke-opacity: 0.7; stroke-width: 0.8"/>
     </g>
     <g id="line2d_8">
      <g>
       <use xlink:href="#m89aa1a28b4" x="368.830796" y="384.48" style="stroke: #000000; stroke-width: 0.8"/>
      </g>
     </g>
     <g id="text_4">
      <!-- 150 -->
      <g transform="translate(349.743296 406.676875) scale(0.2 -0.2)">
       <use xlink:href="#DejaVuSans-31"/>
       <use xlink:href="#DejaVuSans-35" x="63.623047"/>
       <use xlink:href="#DejaVuSans-30" x="127.246094"/>
      </g>
     </g>
    </g>
    <g id="xtick_5">
     <g id="line2d_9">
      <path d="M 453.432652 384.48 
L 453.432652 51.84 
" clip-path="url(#p5cd8a01406)" style="fill: none; stroke-dasharray: 2.96,1.28; stroke-dashoffset: 0; stroke: #b0b0b0; stroke-opacity: 0.7; stroke-width: 0.8"/>
     </g>
     <g id="line2d_10">
      <g>
       <use xlink:href="#m89aa1a28b4" x="453.432652" y="384.48" style="stroke: #000000; stroke-width: 0.8"/>
      </g>
     </g>
     <g id="text_5">
      <!-- 200 -->
      <g transform="translate(434.345152 406.676875) scale(0.2 -0.2)">
       <defs>
        <path id="DejaVuSans-32" d="M 1228 531 
L 3431 531 
L 3431 0 
L 469 0 
L 469 531 
Q 828 903 1448 1529 
Q 2069 2156 2228 2338 
Q 2531 2678 2651 2914 
Q 2772 3150 2772 3378 
Q 2772 3750 2511 3984 
Q 2250 4219 1831 4219 
Q 1534 4219 1204 4116 
Q 875 4013 500 3803 
L 500 4441 
Q 881 4594 1212 4672 
Q 1544 4750 1819 4750 
Q 2544 4750 2975 4387 
Q 3406 4025 3406 3419 
Q 3406 3131 3298 2873 
Q 3191 2616 2906 2266 
Q 2828 2175 2409 1742 
Q 1991 1309 1228 531 
z
" transform="scale(0.015625)"/>
       </defs>
       <use xlink:href="#DejaVuSans-32"/>
       <use xlink:href="#DejaVuSans-30" x="63.623047"/>
       <use xlink:href="#DejaVuSans-30" x="127.246094"/>
      </g>
     </g>
    </g>
    <g id="xtick_6">
     <g id="line2d_11">
      <path d="M 538.034508 384.48 
L 538.034508 51.84 
" clip-path="url(#p5cd8a01406)" style="fill: none; stroke-dasharray: 2.96,1.28; stroke-dashoffset: 0; stroke: #b0b0b0; stroke-opacity: 0.7; stroke-width: 0.8"/>
     </g>
     <g id="line2d_12">
      <g>
       <use xlink:href="#m89aa1a28b4" x="538.034508" y="384.48" style="stroke: #000000; stroke-width: 0.8"/>
      </g>
     </g>
     <g id="text_6">
      <!-- 250 -->
      <g transform="translate(518.947008 406.676875) scale(0.2 -0.2)">
       <use xlink:href="#DejaVuSans-32"/>
       <use xlink:href="#DejaVuSans-35" x="63.623047"/>
       <use xlink:href="#DejaVuSans-30" x="127.246094"/>
      </g>
     </g>
    </g>
    <g id="xtick_7">
     <g id="line2d_13">
      <path d="M 622.636364 384.48 
L 622.636364 51.84 
" clip-path="url(#p5cd8a01406)" style="fill: none; stroke-dasharray: 2.96,1.28; stroke-dashoffset: 0; stroke: #b0b0b0; stroke-opacity: 0.7; stroke-width: 0.8"/>
     </g>
     <g id="line2d_14">
      <g>
       <use xlink:href="#m89aa1a28b4" x="622.636364" y="384.48" style="stroke: #000000; stroke-width: 0.8"/>
      </g>
     </g>
     <g id="text_7">
      <!-- 300 -->
      <g transform="translate(603.548864 406.676875) scale(0.2 -0.2)">
       <defs>
        <path id="DejaVuSans-33" d="M 2597 2516 
Q 3050 2419 3304 2112 
Q 3559 1806 3559 1356 
Q 3559 666 3084 287 
Q 2609 -91 1734 -91 
Q 1441 -91 1130 -33 
Q 819 25 488 141 
L 488 750 
Q 750 597 1062 519 
Q 1375 441 1716 441 
Q 2309 441 2620 675 
Q 2931 909 2931 1356 
Q 2931 1769 2642 2001 
Q 2353 2234 1838 2234 
L 1294 2234 
L 1294 2753 
L 1863 2753 
Q 2328 2753 2575 2939 
Q 2822 3125 2822 3475 
Q 2822 3834 2567 4026 
Q 2313 4219 1838 4219 
Q 1578 4219 1281 4162 
Q 984 4106 628 3988 
L 628 4550 
Q 988 4650 1302 4700 
Q 1616 4750 1894 4750 
Q 2613 4750 3031 4423 
Q 3450 4097 3450 3541 
Q 3450 3153 3228 2886 
Q 3006 2619 2597 2516 
z
" transform="scale(0.015625)"/>
       </defs>
       <use xlink:href="#DejaVuSans-33"/>
       <use xlink:href="#DejaVuSans-30" x="63.623047"/>
       <use xlink:href="#DejaVuSans-30" x="127.246094"/>
      </g>
     </g>
    </g>
    <g id="text_8">
     <!-- Tempo (s) -->
     <g transform="translate(320.040625 430.033125) scale(0.2 -0.2)">
      <defs>
       <path id="DejaVuSans-54" d="M -19 4666 
L 3928 4666 
L 3928 4134 
L 2272 4134 
L 2272 0 
L 1638 0 
L 1638 4134 
L -19 4134 
L -19 4666 
z
" transform="scale(0.015625)"/>
       <path id="DejaVuSans-65" d="M 3597 1894 
L 3597 1613 
L 953 1613 
Q 991 1019 1311 708 
Q 1631 397 2203 397 
Q 2534 397 2845 478 
Q 3156 559 3463 722 
L 3463 178 
Q 3153 47 2828 -22 
Q 2503 -91 2169 -91 
Q 1331 -91 842 396 
Q 353 884 353 1716 
Q 353 2575 817 3079 
Q 1281 3584 2069 3584 
Q 2775 3584 3186 3129 
Q 3597 2675 3597 1894 
z
M 3022 2063 
Q 3016 2534 2758 2815 
Q 2500 3097 2075 3097 
Q 1594 3097 1305 2825 
Q 1016 2553 972 2059 
L 3022 2063 
z
" transform="scale(0.015625)"/>
       <path id="DejaVuSans-6d" d="M 3328 2828 
Q 3544 3216 3844 3400 
Q 4144 3584 4550 3584 
Q 5097 3584 5394 3201 
Q 5691 2819 5691 2113 
L 5691 0 
L 5113 0 
L 5113 2094 
Q 5113 2597 4934 2840 
Q 4756 3084 4391 3084 
Q 3944 3084 3684 2787 
Q 3425 2491 3425 1978 
L 3425 0 
L 2847 0 
L 2847 2094 
Q 2847 2600 2669 2842 
Q 2491 3084 2119 3084 
Q 1678 3084 1418 2786 
Q 1159 2488 1159 1978 
L 1159 0 
L 581 0 
L 581 3500 
L 1159 3500 
L 1159 2956 
Q 1356 3278 1631 3431 
Q 1906 3584 2284 3584 
Q 2666 3584 2933 3390 
Q 3200 3197 3328 2828 
z
" transform="scale(0.015625)"/>
       <path id="DejaVuSans-70" d="M 1159 525 
L 1159 -1331 
L 581 -1331 
L 581 3500 
L 1159 3500 
L 1159 2969 
Q 1341 3281 1617 3432 
Q 1894 3584 2278 3584 
Q 2916 3584 3314 3078 
Q 3713 2572 3713 1747 
Q 3713 922 3314 415 
Q 2916 -91 2278 -91 
Q 1894 -91 1617 61 
Q 1341 213 1159 525 
z
M 3116 1747 
Q 3116 2381 2855 2742 
Q 2594 3103 2138 3103 
Q 1681 3103 1420 2742 
Q 1159 2381 1159 1747 
Q 1159 1113 1420 752 
Q 1681 391 2138 391 
Q 2594 391 2855 752 
Q 3116 1113 3116 1747 
z
" transform="scale(0.015625)"/>
       <path id="DejaVuSans-6f" d="M 1959 3097 
Q 1497 3097 1228 2736 
Q 959 2375 959 1747 
Q 959 1119 1226 758 
Q 1494 397 1959 397 
Q 2419 397 2687 759 
Q 2956 1122 2956 1747 
Q 2956 2369 2687 2733 
Q 2419 3097 1959 3097 
z
M 1959 3584 
Q 2709 3584 3137 3096 
Q 3566 2609 3566 1747 
Q 3566 888 3137 398 
Q 2709 -91 1959 -91 
Q 1206 -91 779 398 
Q 353 888 353 1747 
Q 353 2609 779 3096 
Q 1206 3584 1959 3584 
z
" transform="scale(0.015625)"/>
       <path id="DejaVuSans-20" transform="scale(0.015625)"/>
       <path id="DejaVuSans-28" d="M 1984 4856 
Q 1566 4138 1362 3434 
Q 1159 2731 1159 2009 
Q 1159 1288 1364 580 
Q 1569 -128 1984 -844 
L 1484 -844 
Q 1016 -109 783 600 
Q 550 1309 550 2009 
Q 550 2706 781 3412 
Q 1013 4119 1484 4856 
L 1984 4856 
z
" transform="scale(0.015625)"/>
       <path id="DejaVuSans-73" d="M 2834 3397 
L 2834 2853 
Q 2591 2978 2328 3040 
Q 2066 3103 1784 3103 
Q 1356 3103 1142 2972 
Q 928 2841 928 2578 
Q 928 2378 1081 2264 
Q 1234 2150 1697 2047 
L 1894 2003 
Q 2506 1872 2764 1633 
Q 3022 1394 3022 966 
Q 3022 478 2636 193 
Q 2250 -91 1575 -91 
Q 1294 -91 989 -36 
Q 684 19 347 128 
L 347 722 
Q 666 556 975 473 
Q 1284 391 1588 391 
Q 1994 391 2212 530 
Q 2431 669 2431 922 
Q 2431 1156 2273 1281 
Q 2116 1406 1581 1522 
L 1381 1569 
Q 847 1681 609 1914 
Q 372 2147 372 2553 
Q 372 3047 722 3315 
Q 1072 3584 1716 3584 
Q 2034 3584 2315 3537 
Q 2597 3491 2834 3397 
z
" transform="scale(0.015625)"/>
       <path id="DejaVuSans-29" d="M 513 4856 
L 1013 4856 
Q 1481 4119 1714 3412 
Q 1947 2706 1947 2009 
Q 1947 1309 1714 600 
Q 1481 -109 1013 -844 
L 513 -844 
Q 928 -128 1133 580 
Q 1338 1288 1338 2009 
Q 1338 2731 1133 3434 
Q 928 4138 513 4856 
z
" transform="scale(0.015625)"/>
      </defs>
      <use xlink:href="#DejaVuSans-54"/>
      <use xlink:href="#DejaVuSans-65" x="44.083984"/>
      <use xlink:href="#DejaVuSans-6d" x="105.607422"/>
      <use xlink:href="#DejaVuSans-70" x="203.019531"/>
      <use xlink:href="#DejaVuSans-6f" x="266.496094"/>
      <use xlink:href="#DejaVuSans-20" x="327.677734"/>
      <use xlink:href="#DejaVuSans-28" x="359.464844"/>
      <use xlink:href="#DejaVuSans-73" x="398.478516"/>
      <use xlink:href="#DejaVuSans-29" x="450.578125"/>
     </g>
    </g>
   </g>
   <g id="matplotlib.axis_2">
    <g id="ytick_1">
     <g id="line2d_15">
      <path d="M 90 345.620348 
L 648 345.620348 
" clip-path="url(#p5cd8a01406)" style="fill: none; stroke-dasharray: 2.96,1.28; stroke-dashoffset: 0; stroke: #b0b0b0; stroke-opacity: 0.7; stroke-width: 0.8"/>
     </g>
     <g id="line2d_16">
      <defs>
       <path id="m79074d8843" d="M 0 0 
L -3.5 0 
" style="stroke: #000000; stroke-width: 0.8"/>
      </defs>
      <g>
       <use xlink:href="#m79074d8843" x="90" y="345.620348" style="stroke: #000000; stroke-width: 0.8"/>
      </g>
     </g>
     <g id="text_9">
      <!-- −3 -->
      <g transform="translate(53.515625 353.218786) scale(0.2 -0.2)">
       <defs>
        <path id="DejaVuSans-2212" d="M 678 2272 
L 4684 2272 
L 4684 1741 
L 678 1741 
L 678 2272 
z
" transform="scale(0.015625)"/>
       </defs>
       <use xlink:href="#DejaVuSans-2212"/>
       <use xlink:href="#DejaVuSans-33" x="83.789062"/>
      </g>
     </g>
    </g>
    <g id="ytick_2">
     <g id="line2d_17">
      <path d="M 90 302.457345 
L 648 302.457345 
" clip-path="url(#p5cd8a01406)" style="fill: none; stroke-dasharray: 2.96,1.28; stroke-dashoffset: 0; stroke: #b0b0b0; stroke-opacity: 0.7; stroke-width: 0.8"/>
     </g>
     <g id="line2d_18">
      <g>
       <use xlink:href="#m79074d8843" x="90" y="302.457345" style="stroke: #000000; stroke-width: 0.8"/>
      </g>
     </g>
     <g id="text_10">
      <!-- −2 -->
      <g transform="translate(53.515625 310.055783) scale(0.2 -0.2)">
       <use xlink:href="#DejaVuSans-2212"/>
       <use xlink:href="#DejaVuSans-32" x="83.789062"/>
      </g>
     </g>
    </g>
    <g id="ytick_3">
     <g id="line2d_19">
      <path d="M 90 259.294342 
L 648 259.294342 
" clip-path="url(#p5cd8a01406)" style="fill: none; stroke-dasharray: 2.96,1.28; stroke-dashoffset: 0; stroke: #b0b0b0; stroke-opacity: 0.7; stroke-width: 0.8"/>
     </g>
     <g id="line2d_20">
      <g>
       <use xlink:href="#m79074d8843" x="90" y="259.294342" style="stroke: #000000; stroke-width: 0.8"/>
      </g>
     </g>
     <g id="text_11">
      <!-- −1 -->
      <g transform="translate(53.515625 266.892779) scale(0.2 -0.2)">
       <use xlink:href="#DejaVuSans-2212"/>
       <use xlink:href="#DejaVuSans-31" x="83.789062"/>
      </g>
     </g>
    </g>
    <g id="ytick_4">
     <g id="line2d_21">
      <path d="M 90 216.131339 
L 648 216.131339 
" clip-path="url(#p5cd8a01406)" style="fill: none; stroke-dasharray: 2.96,1.28; stroke-dashoffset: 0; stroke: #b0b0b0; stroke-opacity: 0.7; stroke-width: 0.8"/>
     </g>
     <g id="line2d_22">
      <g>
       <use xlink:href="#m79074d8843" x="90" y="216.131339" style="stroke: #000000; stroke-width: 0.8"/>
      </g>
     </g>
     <g id="text_12">
      <!-- 0 -->
      <g transform="translate(70.275 223.729776) scale(0.2 -0.2)">
       <use xlink:href="#DejaVuSans-30"/>
      </g>
     </g>
    </g>
    <g id="ytick_5">
     <g id="line2d_23">
      <path d="M 90 172.968336 
L 648 172.968336 
" clip-path="url(#p5cd8a01406)" style="fill: none; stroke-dasharray: 2.96,1.28; stroke-dashoffset: 0; stroke: #b0b0b0; stroke-opacity: 0.7; stroke-width: 0.8"/>
     </g>
     <g id="line2d_24">
      <g>
       <use xlink:href="#m79074d8843" x="90" y="172.968336" style="stroke: #000000; stroke-width: 0.8"/>
      </g>
     </g>
     <g id="text_13">
      <!-- 1 -->
      <g transform="translate(70.275 180.566773) scale(0.2 -0.2)">
       <use xlink:href="#DejaVuSans-31"/>
      </g>
     </g>
    </g>
    <g id="ytick_6">
     <g id="line2d_25">
      <path d="M 90 129.805333 
L 648 129.805333 
" clip-path="url(#p5cd8a01406)" style="fill: none; stroke-dasharray: 2.96,1.28; stroke-dashoffset: 0; stroke: #b0b0b0; stroke-opacity: 0.7; stroke-width: 0.8"/>
     </g>
     <g id="line2d_26">
      <g>
       <use xlink:href="#m79074d8843" x="90" y="129.805333" style="stroke: #000000; stroke-width: 0.8"/>
      </g>
     </g>
     <g id="text_14">
      <!-- 2 -->
      <g transform="translate(70.275 137.40377) scale(0.2 -0.2)">
       <use xlink:href="#DejaVuSans-32"/>
      </g>
     </g>
    </g>
    <g id="ytick_7">
     <g id="line2d_27">
      <path d="M 90 86.642329 
L 648 86.642329 
" clip-path="url(#p5cd8a01406)" style="fill: none; stroke-dasharray: 2.96,1.28; stroke-dashoffset: 0; stroke: #b0b0b0; stroke-opacity: 0.7; stroke-width: 0.8"/>
     </g>
     <g id="line2d_28">
      <g>
       <use xlink:href="#m79074d8843" x="90" y="86.642329" style="stroke: #000000; stroke-width: 0.8"/>
      </g>
     </g>
     <g id="text_15">
      <!-- 3 -->
      <g transform="translate(70.275 94.240767) scale(0.2 -0.2)">
       <use xlink:href="#DejaVuSans-33"/>
      </g>
     </g>
    </g>
    <g id="text_16">
     <!-- Velocidade Angular (rad/s) -->
     <g transform="translate(45.35625 350.736562) rotate(-90) scale(0.2 -0.2)">
      <defs>
       <path id="DejaVuSans-56" d="M 1831 0 
L 50 4666 
L 709 4666 
L 2188 738 
L 3669 4666 
L 4325 4666 
L 2547 0 
L 1831 0 
z
" transform="scale(0.015625)"/>
       <path id="DejaVuSans-6c" d="M 603 4863 
L 1178 4863 
L 1178 0 
L 603 0 
L 603 4863 
z
" transform="scale(0.015625)"/>
       <path id="DejaVuSans-63" d="M 3122 3366 
L 3122 2828 
Q 2878 2963 2633 3030 
Q 2388 3097 2138 3097 
Q 1578 3097 1268 2742 
Q 959 2388 959 1747 
Q 959 1106 1268 751 
Q 1578 397 2138 397 
Q 2388 397 2633 464 
Q 2878 531 3122 666 
L 3122 134 
Q 2881 22 2623 -34 
Q 2366 -91 2075 -91 
Q 1284 -91 818 406 
Q 353 903 353 1747 
Q 353 2603 823 3093 
Q 1294 3584 2113 3584 
Q 2378 3584 2631 3529 
Q 2884 3475 3122 3366 
z
" transform="scale(0.015625)"/>
       <path id="DejaVuSans-69" d="M 603 3500 
L 1178 3500 
L 1178 0 
L 603 0 
L 603 3500 
z
M 603 4863 
L 1178 4863 
L 1178 4134 
L 603 4134 
L 603 4863 
z
" transform="scale(0.015625)"/>
       <path id="DejaVuSans-64" d="M 2906 2969 
L 2906 4863 
L 3481 4863 
L 3481 0 
L 2906 0 
L 2906 525 
Q 2725 213 2448 61 
Q 2172 -91 1784 -91 
Q 1150 -91 751 415 
Q 353 922 353 1747 
Q 353 2572 751 3078 
Q 1150 3584 1784 3584 
Q 2172 3584 2448 3432 
Q 2725 3281 2906 2969 
z
M 947 1747 
Q 947 1113 1208 752 
Q 1469 391 1925 391 
Q 2381 391 2643 752 
Q 2906 1113 2906 1747 
Q 2906 2381 2643 2742 
Q 2381 3103 1925 3103 
Q 1469 3103 1208 2742 
Q 947 2381 947 1747 
z
" transform="scale(0.015625)"/>
       <path id="DejaVuSans-61" d="M 2194 1759 
Q 1497 1759 1228 1600 
Q 959 1441 959 1056 
Q 959 750 1161 570 
Q 1363 391 1709 391 
Q 2188 391 2477 730 
Q 2766 1069 2766 1631 
L 2766 1759 
L 2194 1759 
z
M 3341 1997 
L 3341 0 
L 2766 0 
L 2766 531 
Q 2569 213 2275 61 
Q 1981 -91 1556 -91 
Q 1019 -91 701 211 
Q 384 513 384 1019 
Q 384 1609 779 1909 
Q 1175 2209 1959 2209 
L 2766 2209 
L 2766 2266 
Q 2766 2663 2505 2880 
Q 2244 3097 1772 3097 
Q 1472 3097 1187 3025 
Q 903 2953 641 2809 
L 641 3341 
Q 956 3463 1253 3523 
Q 1550 3584 1831 3584 
Q 2591 3584 2966 3190 
Q 3341 2797 3341 1997 
z
" transform="scale(0.015625)"/>
       <path id="DejaVuSans-41" d="M 2188 4044 
L 1331 1722 
L 3047 1722 
L 2188 4044 
z
M 1831 4666 
L 2547 4666 
L 4325 0 
L 3669 0 
L 3244 1197 
L 1141 1197 
L 716 0 
L 50 0 
L 1831 4666 
z
" transform="scale(0.015625)"/>
       <path id="DejaVuSans-6e" d="M 3513 2113 
L 3513 0 
L 2938 0 
L 2938 2094 
Q 2938 2591 2744 2837 
Q 2550 3084 2163 3084 
Q 1697 3084 1428 2787 
Q 1159 2491 1159 1978 
L 1159 0 
L 581 0 
L 581 3500 
L 1159 3500 
L 1159 2956 
Q 1366 3272 1645 3428 
Q 1925 3584 2291 3584 
Q 2894 3584 3203 3211 
Q 3513 2838 3513 2113 
z
" transform="scale(0.015625)"/>
       <path id="DejaVuSans-67" d="M 2906 1791 
Q 2906 2416 2648 2759 
Q 2391 3103 1925 3103 
Q 1463 3103 1205 2759 
Q 947 2416 947 1791 
Q 947 1169 1205 825 
Q 1463 481 1925 481 
Q 2391 481 2648 825 
Q 2906 1169 2906 1791 
z
M 3481 434 
Q 3481 -459 3084 -895 
Q 2688 -1331 1869 -1331 
Q 1566 -1331 1297 -1286 
Q 1028 -1241 775 -1147 
L 775 -588 
Q 1028 -725 1275 -790 
Q 1522 -856 1778 -856 
Q 2344 -856 2625 -561 
Q 2906 -266 2906 331 
L 2906 616 
Q 2728 306 2450 153 
Q 2172 0 1784 0 
Q 1141 0 747 490 
Q 353 981 353 1791 
Q 353 2603 747 3093 
Q 1141 3584 1784 3584 
Q 2172 3584 2450 3431 
Q 2728 3278 2906 2969 
L 2906 3500 
L 3481 3500 
L 3481 434 
z
" transform="scale(0.015625)"/>
       <path id="DejaVuSans-75" d="M 544 1381 
L 544 3500 
L 1119 3500 
L 1119 1403 
Q 1119 906 1312 657 
Q 1506 409 1894 409 
Q 2359 409 2629 706 
Q 2900 1003 2900 1516 
L 2900 3500 
L 3475 3500 
L 3475 0 
L 2900 0 
L 2900 538 
Q 2691 219 2414 64 
Q 2138 -91 1772 -91 
Q 1169 -91 856 284 
Q 544 659 544 1381 
z
M 1991 3584 
L 1991 3584 
z
" transform="scale(0.015625)"/>
       <path id="DejaVuSans-72" d="M 2631 2963 
Q 2534 3019 2420 3045 
Q 2306 3072 2169 3072 
Q 1681 3072 1420 2755 
Q 1159 2438 1159 1844 
L 1159 0 
L 581 0 
L 581 3500 
L 1159 3500 
L 1159 2956 
Q 1341 3275 1631 3429 
Q 1922 3584 2338 3584 
Q 2397 3584 2469 3576 
Q 2541 3569 2628 3553 
L 2631 2963 
z
" transform="scale(0.015625)"/>
       <path id="DejaVuSans-2f" d="M 1625 4666 
L 2156 4666 
L 531 -594 
L 0 -594 
L 1625 4666 
z
" transform="scale(0.015625)"/>
      </defs>
      <use xlink:href="#DejaVuSans-56"/>
      <use xlink:href="#DejaVuSans-65" x="60.658203"/>
      <use xlink:href="#DejaVuSans-6c" x="122.181641"/>
      <use xlink:href="#DejaVuSans-6f" x="149.964844"/>
      <use xlink:href="#DejaVuSans-63" x="211.146484"/>
      <use xlink:href="#DejaVuSans-69" x="266.126953"/>
      <use xlink:href="#DejaVuSans-64" x="293.910156"/>
      <use xlink:href="#DejaVuSans-61" x="357.386719"/>
      <use xlink:href="#DejaVuSans-64" x="418.666016"/>
      <use xlink:href="#DejaVuSans-65" x="482.142578"/>
      <use xlink:href="#DejaVuSans-20" x="543.666016"/>
      <use xlink:href="#DejaVuSans-41" x="575.453125"/>
      <use xlink:href="#DejaVuSans-6e" x="643.861328"/>
      <use xlink:href="#DejaVuSans-67" x="707.240234"/>
      <use xlink:href="#DejaVuSans-75" x="770.716797"/>
      <use xlink:href="#DejaVuSans-6c" x="834.095703"/>
      <use xlink:href="#DejaVuSans-61" x="861.878906"/>
      <use xlink:href="#DejaVuSans-72" x="923.158203"/>
      <use xlink:href="#DejaVuSans-20" x="964.271484"/>
      <use xlink:href="#DejaVuSans-28" x="996.058594"/>
      <use xlink:href="#DejaVuSans-72" x="1035.072266"/>
      <use xlink:href="#DejaVuSans-61" x="1076.185547"/>
      <use xlink:href="#DejaVuSans-64" x="1137.464844"/>
      <use xlink:href="#DejaVuSans-2f" x="1200.941406"/>
      <use xlink:href="#DejaVuSans-73" x="1234.632812"/>
      <use xlink:href="#DejaVuSans-29" x="1286.732422"/>
     </g>
    </g>
   </g>
   <g id="line2d_29">
    <path d="M 115.363636 216.131339 
L 116.040451 350.584094 
L 116.378859 369.36 
L 116.717266 339.016409 
L 118.070896 68.68652 
L 118.409303 70.974159 
L 118.747711 118.367137 
L 119.762933 341.217722 
L 120.10134 368.324088 
L 120.439748 346.181467 
L 121.116563 203.829883 
L 121.45497 126.395455 
L 121.793377 74.901993 
L 122.131785 67.82326 
L 122.470192 108.396483 
L 123.485415 331.678698 
L 123.823822 365.691145 
L 124.162229 351.792658 
L 124.500637 295.723917 
L 125.515859 80.642672 
L 125.854266 66.96 
L 126.192674 101.663055 
L 127.546304 362.712898 
L 127.884711 355.591002 
L 128.223118 303.665909 
L 129.238341 86.858144 
L 129.576748 67.477956 
L 129.915156 96.354005 
L 130.59197 242.503934 
L 130.930378 315.665224 
L 131.268785 359.432509 
L 131.607193 356.756403 
L 131.9456 308.84547 
L 132.960822 91.778727 
L 133.29923 68.600194 
L 133.637637 93.807388 
L 134.314452 237.022232 
L 134.652859 310.917294 
L 134.991267 356.411099 
L 135.329674 356.885892 
L 135.668082 311.910043 
L 136.683304 94.541159 
L 137.021711 69.895084 
L 137.360119 93.375758 
L 138.036934 233.871333 
L 138.375341 307.939047 
L 138.713749 354.598253 
L 139.052156 356.540588 
L 139.390563 312.514325 
L 140.405786 96.354005 
L 140.744193 71.189974 
L 141.082601 93.677899 
L 141.759415 233.094399 
L 142.097823 306.816808 
L 142.43623 353.519178 
L 142.774638 355.332024 
L 143.113045 311.392087 
L 144.128267 97.303591 
L 144.466675 72.441701 
L 144.805082 95.059115 
L 145.481897 234.734593 
L 145.820304 307.766395 
L 146.158712 352.958059 
L 146.497119 353.303363 
L 146.835527 308.715981 
L 147.850749 96.354005 
L 148.189156 73.650265 
L 148.527564 98.339503 
L 149.204379 238.835079 
L 149.542786 310.485664 
L 149.881194 352.914896 
L 150.219601 350.497768 
L 150.558008 304.097539 
L 151.573231 94.109529 
L 151.911638 75.117808 
L 152.250045 103.130597 
L 153.603675 353.476015 
L 153.942083 347.08789 
L 154.28049 297.623089 
L 155.295712 91.303934 
L 155.63412 76.973817 
L 155.972527 109.000765 
L 157.326157 354.037134 
L 157.664564 342.598938 
L 158.002972 289.465281 
L 158.679787 139.171704 
L 159.018194 88.325687 
L 159.356601 79.693086 
L 159.695009 116.511128 
L 160.710231 325.506389 
L 161.048638 354.12346 
L 161.387046 336.29714 
L 161.725453 279.192486 
L 162.402268 130.539104 
L 162.740676 85.261113 
L 163.079083 83.577756 
L 163.41749 126.006988 
L 164.432713 332.024002 
L 164.77112 353.303363 
L 165.109528 328.355147 
L 165.786342 190.104048 
L 166.12475 121.215895 
L 166.463157 82.671333 
L 166.801565 89.059458 
L 167.139972 137.660999 
L 168.155194 338.02366 
L 168.493602 351.015724 
L 168.832009 318.470819 
L 169.847231 111.720034 
L 170.185639 81.246954 
L 170.524046 96.56982 
L 170.862454 151.343671 
L 171.539269 297.4936 
L 171.877676 343.246383 
L 172.216083 346.65626 
L 172.554491 306.083037 
L 173.569713 102.526315 
L 173.908121 81.76491 
L 174.246528 106.756289 
L 174.923343 242.806075 
L 175.26175 310.097197 
L 175.600158 347.174216 
L 175.938565 339.965995 
L 176.276973 291.148638 
L 177.292195 94.541159 
L 177.630602 84.699994 
L 177.96901 119.446212 
L 178.984232 322.010186 
L 179.322639 348.728084 
L 179.661047 330.254319 
L 180.337862 199.125116 
L 180.676269 129.977985 
L 181.014676 88.714154 
L 181.353084 90.829141 
L 181.691491 135.114382 
L 182.706714 332.28298 
L 183.045121 347.174216 
L 183.383528 317.132766 
L 184.398751 115.691031 
L 184.737158 85.692743 
L 185.075566 100.368164 
L 185.413973 153.760799 
L 186.090788 296.457688 
L 186.429195 340.224973 
L 186.767603 341.865167 
L 187.10601 300.601336 
L 188.121232 103.260086 
L 188.45964 86.297025 
L 188.798047 113.921347 
L 190.151677 344.627599 
L 190.490084 332.369306 
L 190.828492 280.660029 
L 191.505307 138.437933 
L 191.843714 94.109529 
L 192.182121 91.476586 
L 192.520529 131.445527 
L 193.535751 326.714953 
L 193.874159 344.541273 
L 194.212566 318.125515 
L 195.566196 89.059458 
L 195.904603 101.533566 
L 196.24301 152.724887 
L 196.919825 293.090973 
L 197.258233 336.815096 
L 197.59664 339.31855 
L 197.935048 299.349609 
L 198.95027 105.677214 
L 199.288677 89.361599 
L 199.627085 116.856432 
L 200.980714 342.080982 
L 201.319122 328.355147 
L 201.657529 276.300565 
L 202.334344 136.970391 
L 202.672752 95.447582 
L 203.011159 95.620234 
L 203.349566 137.272532 
L 204.364789 327.276072 
L 204.703196 341.04507 
L 205.041603 311.43525 
L 206.056826 117.374388 
L 206.395233 91.088119 
L 206.733641 108.396483 
L 207.410455 233.353377 
L 207.748863 298.961142 
L 208.08727 337.117237 
L 208.425678 333.318892 
L 208.764085 288.947325 
L 209.779307 102.74213 
L 210.117715 93.807388 
L 210.456122 127.431367 
L 211.471345 318.298167 
L 211.809752 339.922832 
L 212.148159 318.34133 
L 212.824974 190.406189 
L 213.163382 127.47453 
L 213.501789 94.541159 
L 213.840196 104.080183 
L 214.178604 152.163768 
L 214.855419 288.558858 
L 215.193826 331.808187 
L 215.532234 334.959086 
L 215.870641 296.716666 
L 216.885863 109.173417 
L 217.224271 94.195855 
L 217.562678 121.949666 
L 218.5779 311.176272 
L 218.916308 337.764682 
L 219.254715 321.751208 
L 219.593123 269.221833 
L 220.269938 134.769078 
L 220.608345 97.951036 
L 220.946752 102.569478 
L 221.28516 146.638904 
L 222.300382 327.491887 
L 222.638789 334.829597 
L 222.977197 300.471847 
L 223.992419 113.878184 
L 224.330827 95.620234 
L 224.669234 119.748353 
L 226.022864 335.520206 
L 226.361271 322.528142 
L 226.699679 272.502221 
L 227.376493 138.999052 
L 227.714901 100.713468 
L 228.053308 102.957945 
L 228.391716 144.696569 
L 229.406938 324.772618 
L 229.745345 333.707359 
L 230.083753 301.162455 
L 231.098975 116.338476 
L 231.437382 97.217265 
L 231.77579 120.093657 
L 233.12942 333.707359 
L 233.467827 321.319578 
L 233.806234 272.20008 
L 234.483049 140.207616 
L 234.821457 102.267337 
L 235.159864 104.598139 
L 235.498272 146.077785 
L 236.513494 323.607217 
L 236.851901 331.808187 
L 237.190309 299.004305 
L 238.205531 116.813269 
L 238.543938 98.986948 
L 238.882346 122.7266 
L 240.235975 332.412469 
L 240.574383 318.384493 
L 240.91279 268.488062 
L 241.589605 138.567422 
L 241.928013 102.957945 
L 242.26642 107.533223 
L 242.604827 150.307759 
L 243.281642 280.616866 
L 243.62005 323.952521 
L 243.958457 329.26157 
L 244.296865 294.342701 
L 245.312087 115.38889 
L 245.650494 100.972446 
L 245.988902 127.604019 
L 247.004124 307.766395 
L 247.342531 331.290231 
L 247.680939 313.722889 
L 248.357754 194.506674 
L 248.696161 134.553263 
L 249.034569 103.001108 
L 249.372976 111.849523 
L 249.711383 157.429655 
L 250.388198 286.012241 
L 250.726606 325.117922 
L 251.065013 325.506389 
L 251.40342 286.961827 
L 252.418643 112.799109 
L 252.75705 103.734879 
L 253.095458 134.769078 
L 254.11068 311.953206 
L 254.449087 329.6932 
L 254.787495 306.816808 
L 256.141124 103.17376 
L 256.479532 118.108159 
L 256.817939 167.486634 
L 257.494754 293.349951 
L 257.833162 326.542301 
L 258.171569 320.240502 
L 258.509976 276.861684 
L 259.186791 149.444499 
L 259.525199 109.691373 
L 259.863606 108.008016 
L 260.202013 144.826058 
L 261.217236 316.830625 
L 261.555643 326.973931 
L 261.894051 297.320948 
L 262.909273 122.165481 
L 263.24768 104.46865 
L 263.586088 126.870248 
L 264.939717 327.10342 
L 265.278125 312.514325 
L 265.616532 263.696968 
L 266.293347 139.344356 
L 266.631755 107.317408 
L 266.970162 114.482466 
L 267.308569 157.818122 
L 267.985384 282.731853 
L 268.323792 321.146925 
L 268.662199 321.967023 
L 269.000606 284.717351 
L 270.015829 115.863683 
L 270.354236 107.749038 
L 270.692644 138.653748 
L 271.707866 310.269849 
L 272.046273 325.722204 
L 272.384681 301.680411 
L 273.399903 128.89891 
L 273.73831 106.6268 
L 274.076718 123.978327 
L 274.753533 238.489774 
L 275.09194 295.162798 
L 275.430348 323.995684 
L 275.768755 313.938704 
L 276.107162 268.833366 
L 276.783977 145.602992 
L 277.122385 110.856774 
L 277.460792 114.223488 
L 277.799199 154.019777 
L 278.476014 277.034336 
L 278.814422 317.391744 
L 279.152829 321.319578 
L 279.491237 287.220805 
L 280.506459 119.618864 
L 280.844866 109.173417 
L 281.183274 137.445184 
L 282.198496 306.644156 
L 282.536903 323.779869 
L 282.875311 301.896226 
L 284.228941 108.957602 
L 284.567348 124.755261 
L 285.244163 236.374787 
L 285.58257 292.573017 
L 285.920978 321.751208 
L 286.259385 312.557488 
L 286.597792 268.617551 
L 287.274607 147.415838 
L 287.613015 113.014924 
L 287.951422 116.079498 
L 288.28983 155.185178 
L 288.966644 276.171076 
L 289.305052 315.578898 
L 289.643459 319.075101 
L 289.981867 285.192144 
L 290.997089 120.913754 
L 291.335496 111.547382 
L 291.673904 140.12129 
L 292.689126 306.039874 
L 293.027534 321.578556 
L 293.365941 298.659001 
L 294.381163 131.833994 
L 294.719571 110.856774 
L 295.057978 128.294627 
L 295.734793 239.655176 
L 296.0732 293.824745 
L 296.411608 320.240502 
L 296.750015 308.715981 
L 297.088423 263.740131 
L 297.765237 145.300851 
L 298.103645 113.921347 
L 298.442052 119.834679 
L 298.78046 160.580554 
L 299.457275 279.451464 
L 299.795682 315.578898 
L 300.134089 315.535735 
L 300.472497 279.235649 
L 301.487719 119.964168 
L 301.826127 114.784607 
L 302.164534 146.509415 
L 303.179756 307.895884 
L 303.518164 318.77296 
L 303.856571 292.18455 
L 304.871793 128.89891 
L 305.210201 112.885435 
L 305.548608 134.725915 
L 306.56383 298.011556 
L 306.902238 319.075101 
L 307.240645 302.457345 
L 307.91746 193.082295 
L 308.255868 139.862312 
L 308.594275 114.223488 
L 308.932682 125.920662 
L 309.27109 170.205904 
L 309.947905 286.098567 
L 310.286312 316.398995 
L 310.62472 310.054034 
L 310.963127 269.351322 
L 311.639942 152.379583 
L 311.978349 118.108159 
L 312.316757 119.748353 
L 312.655164 156.480069 
L 313.670386 311.176272 
L 314.008794 314.715638 
L 314.347201 282.127571 
L 315.362423 124.409957 
L 315.700831 116.25215 
L 316.039238 144.696569 
L 317.054461 303.709072 
L 317.392868 316.830625 
L 317.731275 292.918321 
L 318.746498 132.697254 
L 319.084905 115.38889 
L 319.423313 135.114382 
L 320.776942 316.398995 
L 321.11535 301.335107 
L 321.792164 195.067793 
L 322.130572 142.495255 
L 322.468979 116.726943 
L 322.807387 127.604019 
L 323.145794 170.72386 
L 323.822609 284.199395 
L 324.161016 313.938704 
L 324.499424 307.723232 
L 324.837831 267.88378 
L 325.514646 153.544984 
L 325.853054 120.266309 
L 326.191461 122.338133 
L 326.529868 158.767708 
L 327.206683 272.761199 
L 327.545091 309.406589 
L 327.883498 311.823717 
L 328.221906 279.019834 
L 329.237128 125.618521 
L 329.575535 119.100908 
L 329.913943 148.408587 
L 330.929165 303.234279 
L 331.267572 313.981867 
L 331.60598 288.558858 
L 332.621202 132.438276 
L 332.959609 117.97867 
L 333.298017 139.819149 
L 334.313239 295.723917 
L 334.651647 314.154519 
L 334.990054 296.371362 
L 336.343684 118.539789 
L 336.682091 132.78358 
L 337.358906 235.943157 
L 337.697313 287.263968 
L 338.035721 312.686977 
L 338.374128 302.457345 
L 338.712536 260.41658 
L 339.38935 149.401336 
L 339.727758 120.827428 
L 340.066165 127.517693 
L 340.404573 166.752863 
L 341.081388 277.940759 
L 341.419795 309.751893 
L 341.758202 306.98946 
L 342.09661 270.603049 
L 342.773425 158.94036 
L 343.111832 124.366794 
L 343.45024 123.805675 
L 343.788647 157.257003 
L 344.803869 305.521918 
L 345.142277 309.924545 
L 345.480684 279.53779 
L 346.495906 129.157888 
L 346.834314 121.561199 
L 347.172721 148.969706 
L 348.187943 300.08338 
L 348.526351 311.262598 
L 348.864758 287.091316 
L 349.879981 135.114382 
L 350.218388 120.827428 
L 350.556795 141.890973 
L 351.572018 293.867908 
L 351.910425 311.392087 
L 352.248833 293.47944 
L 353.602462 121.259058 
L 353.94087 136.107131 
L 354.617685 237.497025 
L 354.956092 286.832338 
L 355.294499 310.269849 
L 355.632907 298.659001 
L 355.971314 256.575073 
L 356.648129 149.012869 
L 356.986536 122.899252 
L 357.324944 131.531853 
L 357.663351 171.457631 
L 358.340166 279.365138 
L 358.678574 308.068536 
L 359.016981 302.629997 
L 359.355388 265.121347 
L 360.032203 156.652721 
L 360.370611 125.445869 
L 360.709018 128.121975 
L 361.047426 163.429312 
L 361.72424 271.552635 
L 362.062648 305.003962 
L 362.401055 305.478755 
L 362.739463 272.674873 
L 363.754685 128.942073 
L 364.093092 125.791173 
L 364.4315 156.22109 
L 365.446722 301.205618 
L 365.785129 307.377927 
L 366.123537 279.451464 
L 367.138759 133.128884 
L 367.477167 124.496283 
L 367.815574 149.962455 
L 368.830796 296.716666 
L 369.169204 308.154862 
L 369.507611 285.235307 
L 370.522833 137.876814 
L 370.861241 124.02149 
L 371.199648 144.610243 
L 372.214871 291.666594 
L 372.553278 308.154862 
L 372.891685 290.199052 
L 373.906908 143.056375 
L 374.245315 124.409957 
L 374.583722 140.034964 
L 375.260537 239.223546 
L 375.598945 286.314382 
L 375.937352 307.42109 
L 376.27576 294.342701 
L 376.952574 196.794313 
L 377.290982 148.624402 
L 377.629389 125.489032 
L 377.967797 136.279783 
L 378.306204 176.76668 
L 378.983019 280.660029 
L 379.321426 305.953548 
L 379.659834 297.666252 
L 379.998241 258.949038 
L 380.675056 154.321918 
L 381.013464 127.129226 
L 381.351871 133.301536 
L 381.690278 170.29223 
L 382.367093 274.78986 
L 382.705501 303.96805 
L 383.043908 300.299195 
L 383.382315 265.16451 
L 384.05913 160.23525 
L 384.397538 129.33054 
L 384.735945 131.05706 
L 385.074353 164.508387 
L 385.751167 268.833366 
L 386.089575 301.464596 
L 386.427982 302.198367 
L 386.76639 270.646212 
L 387.781612 132.136135 
L 388.120019 129.460029 
L 388.458427 159.242501 
L 389.473649 298.529512 
L 389.812057 303.406931 
L 390.150464 275.566794 
L 391.165686 135.157545 
L 391.504094 128.424116 
L 391.842501 154.624059 
L 392.857723 295.292287 
L 393.196131 304.140702 
L 393.534538 279.926257 
L 394.54976 138.567422 
L 394.888168 127.949323 
L 395.226575 150.480411 
L 396.241798 291.839246 
L 396.580205 304.39968 
L 396.918612 283.724602 
L 397.933835 142.063625 
L 398.272242 127.949323 
L 398.61065 146.984208 
L 399.625872 288.213554 
L 399.964279 304.227028 
L 400.302687 286.961827 
L 401.317909 145.86197 
L 401.656316 128.33779 
L 401.994724 143.876472 
L 403.348353 303.665909 
L 403.686761 289.810585 
L 404.363576 195.110956 
L 404.701983 149.573988 
L 405.040391 129.028399 
L 405.378798 141.329854 
L 406.055613 234.561941 
L 406.39402 280.660029 
L 406.732428 302.759486 
L 407.070835 292.18455 
L 407.409243 253.035707 
L 408.086057 153.415495 
L 408.424465 130.064311 
L 408.762872 139.214867 
L 409.10128 177.155147 
L 409.778094 276.689032 
L 410.116502 301.464596 
L 410.454909 294.04056 
L 410.793317 257.308844 
L 411.470132 157.300166 
L 411.808539 131.402364 
L 412.146946 137.488347 
L 412.485354 173.097825 
L 413.162169 272.933851 
L 413.500576 300.08338 
L 413.838984 295.637591 
L 414.177391 261.236677 
L 414.854206 161.141673 
L 415.192613 132.869906 
L 415.531021 136.063968 
L 415.869428 169.385806 
L 416.546243 269.135507 
L 416.88465 298.529512 
L 417.223058 296.889318 
L 417.561465 264.73288 
L 418.23828 164.896854 
L 418.576687 134.553263 
L 418.915095 135.071219 
L 419.253502 166.019092 
L 419.930317 265.337162 
L 420.268725 296.802992 
L 420.607132 297.838904 
L 420.945539 267.926943 
L 421.960762 136.23662 
L 422.299169 134.207959 
L 422.637577 163.084008 
L 423.652799 294.990146 
L 423.991206 298.443186 
L 424.329614 270.775701 
L 425.344836 138.092629 
L 425.683243 133.690003 
L 426.021651 160.407902 
L 427.036873 293.090973 
L 427.37528 298.831653 
L 427.713688 273.235992 
L 428.72891 140.034964 
L 429.067318 133.344699 
L 429.405725 158.033937 
L 430.420947 291.105475 
L 430.759355 299.004305 
L 431.097762 275.437305 
L 432.112984 141.934136 
L 432.451392 133.258373 
L 432.789799 155.918949 
L 433.805022 289.249466 
L 434.143429 299.090631 
L 434.481836 277.422803 
L 435.497059 143.876472 
L 435.835466 133.258373 
L 436.173873 154.106103 
L 437.189096 287.263968 
L 437.527503 298.917979 
L 437.865911 279.149323 
L 438.881133 145.86197 
L 439.21954 133.431025 
L 439.557948 152.379583 
L 440.57317 285.407959 
L 440.911577 298.659001 
L 441.249985 280.660029 
L 442.265207 147.717979 
L 442.603615 133.690003 
L 442.942022 151.04153 
L 443.957244 283.55195 
L 444.295652 298.400023 
L 444.634059 281.954919 
L 445.649281 149.530825 
L 445.987689 134.07847 
L 446.326096 149.876129 
L 447.341318 281.782267 
L 447.679726 297.92523 
L 448.018133 283.033994 
L 449.371763 134.466937 
L 449.71017 148.88338 
L 451.0638 297.4936 
L 451.402208 283.98358 
L 452.079022 194.722489 
L 452.41743 152.811213 
L 452.755837 134.94173 
L 453.094245 148.063283 
L 453.771059 236.547439 
L 454.109467 278.501878 
L 454.447874 296.932481 
L 454.786282 284.631025 
L 455.463097 196.75115 
L 455.801504 154.451407 
L 456.139911 135.502849 
L 456.478319 147.372675 
L 457.155134 234.561941 
L 457.493541 276.991173 
L 457.831949 296.414525 
L 458.170356 285.27847 
L 458.847171 198.563997 
L 459.185578 155.918949 
L 459.523986 136.063968 
L 459.862393 146.811556 
L 460.539208 232.835421 
L 460.877615 275.609957 
L 461.216023 295.896569 
L 461.55443 285.796426 
L 461.892838 249.194199 
L 462.569652 157.21384 
L 462.90806 136.625087 
L 463.246467 146.423089 
L 463.584875 182.550522 
L 464.26169 274.271904 
L 464.600097 295.292287 
L 464.938504 286.14173 
L 465.276912 250.316437 
L 465.953727 158.50873 
L 466.292134 137.186206 
L 466.630542 146.077785 
L 466.968949 181.51461 
L 467.645764 273.149666 
L 467.984171 294.774331 
L 468.322579 286.400708 
L 468.660986 251.266023 
L 469.337801 159.587805 
L 469.676208 137.704162 
L 470.014616 145.86197 
L 470.353023 180.65135 
L 471.029838 272.070591 
L 471.368245 294.213212 
L 471.706653 286.57336 
L 472.04506 252.08612 
L 472.721875 160.580554 
L 473.060283 138.265281 
L 473.39869 145.732481 
L 473.737097 179.917579 
L 474.413912 271.121005 
L 474.75232 293.695255 
L 475.090727 286.659686 
L 475.429135 252.690403 
L 476.105949 161.443814 
L 476.444357 138.783237 
L 476.782764 145.732481 
L 477.121172 179.442786 
L 477.797987 270.257745 
L 478.136394 293.134136 
L 478.474801 286.57336 
L 478.813209 253.122033 
L 479.490024 162.307074 
L 479.828431 139.344356 
L 480.166838 145.775644 
L 480.505246 179.011156 
L 481.182061 269.523974 
L 481.520468 292.61618 
L 481.858876 286.530197 
L 482.197283 253.553663 
L 482.874098 162.868193 
L 483.212505 139.68966 
L 483.550913 145.86197 
L 483.88932 178.795341 
L 484.566135 269.006018 
L 484.904542 292.227713 
L 485.24295 286.357545 
L 485.581357 253.639989 
L 486.258172 163.429312 
L 486.59658 140.207616 
L 486.934987 146.077785 
L 487.273394 178.622689 
L 487.950209 268.574388 
L 488.288617 291.882409 
L 488.627024 286.184893 
L 488.965431 253.683152 
L 489.642246 163.774616 
L 489.980654 140.55292 
L 490.319061 146.336763 
L 490.657469 178.795341 
L 491.334283 268.099595 
L 491.672691 291.32129 
L 492.011098 285.796426 
L 492.349506 253.596826 
L 493.026321 164.163083 
L 493.364728 140.98455 
L 493.703135 146.682067 
L 494.041543 178.881667 
L 494.718358 267.926943 
L 495.056765 291.105475 
L 495.395173 285.494285 
L 495.73358 253.294685 
L 496.410395 164.249409 
L 496.748802 141.329854 
L 497.08721 147.070534 
L 497.425617 179.183808 
L 498.102432 267.754291 
L 498.440839 290.760171 
L 498.779247 285.105818 
L 499.117654 253.035707 
L 499.794469 164.378898 
L 500.132876 141.588832 
L 500.471284 147.502164 
L 500.809691 179.572275 
L 501.486506 267.840617 
L 501.824914 290.501193 
L 502.163321 284.544699 
L 502.501728 252.388261 
L 503.178543 164.422061 
L 503.516951 142.020462 
L 503.855358 148.063283 
L 504.193766 180.133394 
L 504.87058 267.840617 
L 505.208988 290.155889 
L 505.547395 284.026743 
L 505.885803 251.913468 
L 506.562618 164.206246 
L 506.901025 142.193114 
L 507.239432 148.538076 
L 507.57784 180.780839 
L 508.254655 268.056432 
L 508.593062 289.983237 
L 508.931469 283.465624 
L 509.269877 251.179697 
L 509.946692 163.990431 
L 510.285099 142.408929 
L 510.623507 149.185521 
L 510.961914 181.600936 
L 511.638729 268.272247 
L 511.977136 289.681096 
L 512.315544 282.861342 
L 512.653951 250.3596 
L 513.330766 163.645127 
L 513.669173 142.624745 
L 514.007581 149.876129 
L 514.345988 182.464196 
L 515.022803 268.74704 
L 515.361211 289.508444 
L 515.699618 282.084408 
L 516.038025 249.366851 
L 516.71484 163.25666 
L 517.053248 142.797397 
L 517.391655 150.6099 
L 517.730062 183.456945 
L 518.406877 269.17867 
L 518.745285 289.335792 
L 519.083692 281.350637 
L 519.4221 248.287776 
L 520.098914 162.781867 
L 520.437322 143.013212 
L 520.775729 151.386834 
L 521.114137 184.536021 
L 521.790952 269.696626 
L 522.129359 289.206303 
L 522.467766 280.53054 
L 522.806174 247.165538 
L 523.482989 162.220748 
L 523.821396 143.185864 
L 524.159804 152.293257 
L 524.498211 185.787748 
L 525.175026 270.214582 
L 525.513433 288.947325 
L 525.851841 279.624116 
L 526.190248 245.870648 
L 526.867063 161.616466 
L 527.20547 143.401679 
L 527.543878 153.242843 
L 528.220693 232.015324 
L 528.5591 270.862027 
L 528.897507 288.774673 
L 529.235915 278.67453 
L 529.91273 199.513583 
L 530.251137 160.925858 
L 530.589545 143.574331 
L 530.927952 154.278755 
L 531.604767 233.353377 
L 531.943174 271.552635 
L 532.281582 288.558858 
L 532.619989 277.595455 
L 533.296804 198.089204 
L 533.635211 160.192087 
L 533.973619 143.790146 
L 534.312026 155.35783 
L 534.988841 234.777756 
L 535.327248 272.286406 
L 535.665656 288.29988 
L 536.004063 276.473217 
L 536.680878 196.707987 
L 537.019286 159.415153 
L 537.357693 144.049124 
L 537.6961 156.523232 
L 539.04973 288.040902 
L 539.388138 275.22149 
L 540.741767 144.394428 
L 541.080175 157.818122 
L 542.095397 273.969763 
L 542.433804 287.781924 
L 542.772212 273.883437 
L 543.787434 157.818122 
L 544.125841 144.653406 
L 544.464249 159.113012 
L 545.479471 274.78986 
L 545.817879 287.393457 
L 546.156286 272.459058 
L 547.171508 156.954862 
L 547.509916 145.041873 
L 547.848323 160.66688 
L 548.863545 275.566794 
L 549.201953 286.918664 
L 549.54036 270.948353 
L 550.555583 156.177927 
L 550.89399 145.516666 
L 551.232397 162.177585 
L 552.24762 276.430054 
L 552.586027 286.530197 
L 552.924434 269.394485 
L 553.939657 155.228341 
L 554.278064 146.034622 
L 554.616472 163.860942 
L 555.631694 277.37964 
L 555.970101 286.012241 
L 556.308509 267.581639 
L 557.323731 154.451407 
L 557.662138 146.509415 
L 558.000546 165.630625 
L 559.015768 278.113411 
L 559.354176 285.407959 
L 559.692583 265.855118 
L 560.707805 153.63131 
L 561.046213 147.243186 
L 561.38462 167.486634 
L 562.399842 278.976671 
L 562.73825 284.717351 
L 563.076657 263.86962 
L 564.091879 152.854376 
L 564.430287 147.976957 
L 564.768694 169.472132 
L 565.783917 279.753605 
L 566.122324 283.854091 
L 566.460731 261.71147 
L 567.475954 152.163768 
L 567.814361 148.840217 
L 568.152769 171.630283 
L 569.167991 280.444214 
L 569.506398 282.990831 
L 569.844806 259.639646 
L 570.860028 151.429997 
L 571.198435 149.789803 
L 571.536843 173.831596 
L 572.213658 255.064368 
L 572.552065 281.091659 
L 572.890472 281.998082 
L 573.22888 257.39517 
L 573.905695 176.119235 
L 574.244102 150.825715 
L 574.58251 150.868878 
L 574.920917 176.205561 
L 575.597732 257.093029 
L 575.936139 281.609615 
L 576.274547 280.832681 
L 576.612954 254.934879 
L 577.289769 174.047411 
L 577.628176 150.307759 
L 577.966584 152.120605 
L 578.304991 178.665852 
L 578.981806 259.12169 
L 579.320213 282.127571 
L 579.658621 279.53779 
L 579.997028 252.345098 
L 580.673843 172.061913 
L 581.012251 149.919292 
L 581.350658 153.458658 
L 581.689065 181.255632 
L 582.36588 261.150351 
L 582.704288 282.516038 
L 583.042695 278.113411 
L 583.381103 249.712155 
L 584.057917 170.033251 
L 584.396325 149.573988 
L 584.734732 155.012526 
L 585.07314 184.018065 
L 585.749955 263.135849 
L 586.088362 282.818179 
L 586.426769 276.602706 
L 586.765177 246.90656 
L 587.441992 168.047753 
L 587.780399 149.358173 
L 588.118806 156.566395 
L 588.457214 186.82366 
L 589.134029 265.078184 
L 589.472436 282.990831 
L 589.810844 274.876186 
L 590.149251 244.057802 
L 590.826066 166.148581 
L 591.164473 149.228684 
L 591.502881 158.336078 
L 592.179696 231.324716 
L 592.518103 266.977357 
L 592.85651 282.990831 
L 593.194918 273.020177 
L 593.871733 199.47042 
L 594.21014 164.335735 
L 594.548548 149.271847 
L 594.886955 160.23525 
L 595.56377 234.2598 
L 595.902177 268.74704 
L 596.240585 282.861342 
L 596.578992 271.034679 
L 597.932622 149.444499 
L 598.271029 162.350237 
L 599.286251 270.559886 
L 599.624659 282.645527 
L 599.963066 268.833366 
L 600.978289 160.882695 
L 601.316696 149.876129 
L 601.655103 164.594713 
L 602.670326 272.20008 
L 603.008733 282.170734 
L 603.347141 266.459401 
L 604.362363 159.285664 
L 604.70077 150.350922 
L 605.039178 167.011841 
L 606.0544 273.667622 
L 606.392807 281.609615 
L 606.731215 264.042272 
L 607.746437 157.818122 
L 608.084844 151.084693 
L 608.423252 169.644784 
L 609.438474 275.048838 
L 609.776882 280.746355 
L 610.115289 261.323003 
L 611.130511 156.523232 
L 611.468919 151.947953 
L 611.807326 172.364054 
L 612.822548 276.300565 
L 613.160956 279.883094 
L 613.499363 258.560571 
L 614.514585 155.400993 
L 614.852993 153.070191 
L 615.1914 175.212812 
L 616.206623 277.37964 
L 616.54503 278.631367 
L 616.883437 255.495998 
L 617.560252 178.4932 
L 617.89866 154.451407 
L 618.237067 154.365081 
L 618.575475 178.320548 
L 619.252289 255.107531 
L 619.590697 278.286063 
L 619.929104 277.206988 
L 620.267512 252.345098 
L 620.944327 175.687605 
L 621.282734 153.588147 
L 621.621141 155.918949 
L 621.959549 181.600936 
L 622.636364 257.869963 
L 622.636364 257.869963 
" clip-path="url(#p5cd8a01406)" style="fill: none; stroke: #0000ff; stroke-opacity: 0.7; stroke-width: 1.5; stroke-linecap: square"/>
   </g>
   <g id="line2d_30">
    <defs>
     <path id="m1e603b4b5b" d="M 0 3 
C 0.795609 3 1.55874 2.683901 2.12132 2.12132 
C 2.683901 1.55874 3 0.795609 3 0 
C 3 -0.795609 2.683901 -1.55874 2.12132 -2.12132 
C 1.55874 -2.683901 0.795609 -3 0 -3 
C -0.795609 -3 -1.55874 -2.683901 -2.12132 -2.12132 
C -2.683901 -1.55874 -3 -0.795609 -3 0 
C -3 0.795609 -2.683901 1.55874 -2.12132 2.12132 
C -1.55874 2.683901 -0.795609 3 0 3 
z
" style="stroke: #ff0000"/>
    </defs>
    <g clip-path="url(#p5cd8a01406)">
     <use xlink:href="#m1e603b4b5b" x="118.070896" y="68.68652" style="fill: #ff0000; stroke: #ff0000"/>
     <use xlink:href="#m1e603b4b5b" x="122.131785" y="67.82326" style="fill: #ff0000; stroke: #ff0000"/>
     <use xlink:href="#m1e603b4b5b" x="125.854266" y="66.96" style="fill: #ff0000; stroke: #ff0000"/>
     <use xlink:href="#m1e603b4b5b" x="129.576748" y="67.477956" style="fill: #ff0000; stroke: #ff0000"/>
     <use xlink:href="#m1e603b4b5b" x="133.29923" y="68.600194" style="fill: #ff0000; stroke: #ff0000"/>
     <use xlink:href="#m1e603b4b5b" x="137.021711" y="69.895084" style="fill: #ff0000; stroke: #ff0000"/>
     <use xlink:href="#m1e603b4b5b" x="140.744193" y="71.189974" style="fill: #ff0000; stroke: #ff0000"/>
     <use xlink:href="#m1e603b4b5b" x="144.466675" y="72.441701" style="fill: #ff0000; stroke: #ff0000"/>
     <use xlink:href="#m1e603b4b5b" x="148.189156" y="73.650265" style="fill: #ff0000; stroke: #ff0000"/>
     <use xlink:href="#m1e603b4b5b" x="151.911638" y="75.117808" style="fill: #ff0000; stroke: #ff0000"/>
     <use xlink:href="#m1e603b4b5b" x="155.63412" y="76.973817" style="fill: #ff0000; stroke: #ff0000"/>
     <use xlink:href="#m1e603b4b5b" x="159.356601" y="79.693086" style="fill: #ff0000; stroke: #ff0000"/>
     <use xlink:href="#m1e603b4b5b" x="163.079083" y="83.577756" style="fill: #ff0000; stroke: #ff0000"/>
     <use xlink:href="#m1e603b4b5b" x="166.463157" y="82.671333" style="fill: #ff0000; stroke: #ff0000"/>
     <use xlink:href="#m1e603b4b5b" x="170.185639" y="81.246954" style="fill: #ff0000; stroke: #ff0000"/>
     <use xlink:href="#m1e603b4b5b" x="173.908121" y="81.76491" style="fill: #ff0000; stroke: #ff0000"/>
     <use xlink:href="#m1e603b4b5b" x="177.630602" y="84.699994" style="fill: #ff0000; stroke: #ff0000"/>
     <use xlink:href="#m1e603b4b5b" x="181.014676" y="88.714154" style="fill: #ff0000; stroke: #ff0000"/>
     <use xlink:href="#m1e603b4b5b" x="184.737158" y="85.692743" style="fill: #ff0000; stroke: #ff0000"/>
     <use xlink:href="#m1e603b4b5b" x="188.45964" y="86.297025" style="fill: #ff0000; stroke: #ff0000"/>
     <use xlink:href="#m1e603b4b5b" x="192.182121" y="91.476586" style="fill: #ff0000; stroke: #ff0000"/>
     <use xlink:href="#m1e603b4b5b" x="195.566196" y="89.059458" style="fill: #ff0000; stroke: #ff0000"/>
     <use xlink:href="#m1e603b4b5b" x="199.288677" y="89.361599" style="fill: #ff0000; stroke: #ff0000"/>
     <use xlink:href="#m1e603b4b5b" x="202.672752" y="95.447582" style="fill: #ff0000; stroke: #ff0000"/>
     <use xlink:href="#m1e603b4b5b" x="206.395233" y="91.088119" style="fill: #ff0000; stroke: #ff0000"/>
     <use xlink:href="#m1e603b4b5b" x="210.117715" y="93.807388" style="fill: #ff0000; stroke: #ff0000"/>
     <use xlink:href="#m1e603b4b5b" x="213.501789" y="94.541159" style="fill: #ff0000; stroke: #ff0000"/>
     <use xlink:href="#m1e603b4b5b" x="217.224271" y="94.195855" style="fill: #ff0000; stroke: #ff0000"/>
     <use xlink:href="#m1e603b4b5b" x="220.608345" y="97.951036" style="fill: #ff0000; stroke: #ff0000"/>
     <use xlink:href="#m1e603b4b5b" x="224.330827" y="95.620234" style="fill: #ff0000; stroke: #ff0000"/>
     <use xlink:href="#m1e603b4b5b" x="227.714901" y="100.713468" style="fill: #ff0000; stroke: #ff0000"/>
     <use xlink:href="#m1e603b4b5b" x="231.437382" y="97.217265" style="fill: #ff0000; stroke: #ff0000"/>
     <use xlink:href="#m1e603b4b5b" x="234.821457" y="102.267337" style="fill: #ff0000; stroke: #ff0000"/>
     <use xlink:href="#m1e603b4b5b" x="238.543938" y="98.986948" style="fill: #ff0000; stroke: #ff0000"/>
     <use xlink:href="#m1e603b4b5b" x="241.928013" y="102.957945" style="fill: #ff0000; stroke: #ff0000"/>
     <use xlink:href="#m1e603b4b5b" x="245.650494" y="100.972446" style="fill: #ff0000; stroke: #ff0000"/>
     <use xlink:href="#m1e603b4b5b" x="249.034569" y="103.001108" style="fill: #ff0000; stroke: #ff0000"/>
     <use xlink:href="#m1e603b4b5b" x="252.75705" y="103.734879" style="fill: #ff0000; stroke: #ff0000"/>
     <use xlink:href="#m1e603b4b5b" x="256.141124" y="103.17376" style="fill: #ff0000; stroke: #ff0000"/>
     <use xlink:href="#m1e603b4b5b" x="259.863606" y="108.008016" style="fill: #ff0000; stroke: #ff0000"/>
     <use xlink:href="#m1e603b4b5b" x="263.24768" y="104.46865" style="fill: #ff0000; stroke: #ff0000"/>
     <use xlink:href="#m1e603b4b5b" x="266.631755" y="107.317408" style="fill: #ff0000; stroke: #ff0000"/>
     <use xlink:href="#m1e603b4b5b" x="270.354236" y="107.749038" style="fill: #ff0000; stroke: #ff0000"/>
     <use xlink:href="#m1e603b4b5b" x="273.73831" y="106.6268" style="fill: #ff0000; stroke: #ff0000"/>
     <use xlink:href="#m1e603b4b5b" x="277.122385" y="110.856774" style="fill: #ff0000; stroke: #ff0000"/>
     <use xlink:href="#m1e603b4b5b" x="280.844866" y="109.173417" style="fill: #ff0000; stroke: #ff0000"/>
     <use xlink:href="#m1e603b4b5b" x="284.228941" y="108.957602" style="fill: #ff0000; stroke: #ff0000"/>
     <use xlink:href="#m1e603b4b5b" x="287.613015" y="113.014924" style="fill: #ff0000; stroke: #ff0000"/>
     <use xlink:href="#m1e603b4b5b" x="291.335496" y="111.547382" style="fill: #ff0000; stroke: #ff0000"/>
     <use xlink:href="#m1e603b4b5b" x="294.719571" y="110.856774" style="fill: #ff0000; stroke: #ff0000"/>
     <use xlink:href="#m1e603b4b5b" x="298.103645" y="113.921347" style="fill: #ff0000; stroke: #ff0000"/>
     <use xlink:href="#m1e603b4b5b" x="301.826127" y="114.784607" style="fill: #ff0000; stroke: #ff0000"/>
     <use xlink:href="#m1e603b4b5b" x="305.210201" y="112.885435" style="fill: #ff0000; stroke: #ff0000"/>
     <use xlink:href="#m1e603b4b5b" x="308.594275" y="114.223488" style="fill: #ff0000; stroke: #ff0000"/>
     <use xlink:href="#m1e603b4b5b" x="311.978349" y="118.108159" style="fill: #ff0000; stroke: #ff0000"/>
     <use xlink:href="#m1e603b4b5b" x="315.700831" y="116.25215" style="fill: #ff0000; stroke: #ff0000"/>
     <use xlink:href="#m1e603b4b5b" x="319.084905" y="115.38889" style="fill: #ff0000; stroke: #ff0000"/>
     <use xlink:href="#m1e603b4b5b" x="322.468979" y="116.726943" style="fill: #ff0000; stroke: #ff0000"/>
     <use xlink:href="#m1e603b4b5b" x="325.853054" y="120.266309" style="fill: #ff0000; stroke: #ff0000"/>
     <use xlink:href="#m1e603b4b5b" x="329.575535" y="119.100908" style="fill: #ff0000; stroke: #ff0000"/>
     <use xlink:href="#m1e603b4b5b" x="332.959609" y="117.97867" style="fill: #ff0000; stroke: #ff0000"/>
     <use xlink:href="#m1e603b4b5b" x="336.343684" y="118.539789" style="fill: #ff0000; stroke: #ff0000"/>
     <use xlink:href="#m1e603b4b5b" x="339.727758" y="120.827428" style="fill: #ff0000; stroke: #ff0000"/>
     <use xlink:href="#m1e603b4b5b" x="343.45024" y="123.805675" style="fill: #ff0000; stroke: #ff0000"/>
     <use xlink:href="#m1e603b4b5b" x="346.834314" y="121.561199" style="fill: #ff0000; stroke: #ff0000"/>
     <use xlink:href="#m1e603b4b5b" x="350.218388" y="120.827428" style="fill: #ff0000; stroke: #ff0000"/>
     <use xlink:href="#m1e603b4b5b" x="353.602462" y="121.259058" style="fill: #ff0000; stroke: #ff0000"/>
     <use xlink:href="#m1e603b4b5b" x="356.986536" y="122.899252" style="fill: #ff0000; stroke: #ff0000"/>
     <use xlink:href="#m1e603b4b5b" x="360.370611" y="125.445869" style="fill: #ff0000; stroke: #ff0000"/>
     <use xlink:href="#m1e603b4b5b" x="364.093092" y="125.791173" style="fill: #ff0000; stroke: #ff0000"/>
     <use xlink:href="#m1e603b4b5b" x="367.477167" y="124.496283" style="fill: #ff0000; stroke: #ff0000"/>
     <use xlink:href="#m1e603b4b5b" x="370.861241" y="124.02149" style="fill: #ff0000; stroke: #ff0000"/>
     <use xlink:href="#m1e603b4b5b" x="374.245315" y="124.409957" style="fill: #ff0000; stroke: #ff0000"/>
     <use xlink:href="#m1e603b4b5b" x="377.629389" y="125.489032" style="fill: #ff0000; stroke: #ff0000"/>
     <use xlink:href="#m1e603b4b5b" x="381.013464" y="127.129226" style="fill: #ff0000; stroke: #ff0000"/>
     <use xlink:href="#m1e603b4b5b" x="384.397538" y="129.33054" style="fill: #ff0000; stroke: #ff0000"/>
     <use xlink:href="#m1e603b4b5b" x="388.120019" y="129.460029" style="fill: #ff0000; stroke: #ff0000"/>
     <use xlink:href="#m1e603b4b5b" x="391.504094" y="128.424116" style="fill: #ff0000; stroke: #ff0000"/>
     <use xlink:href="#m1e603b4b5b" x="394.888168" y="127.949323" style="fill: #ff0000; stroke: #ff0000"/>
     <use xlink:href="#m1e603b4b5b" x="398.272242" y="127.949323" style="fill: #ff0000; stroke: #ff0000"/>
     <use xlink:href="#m1e603b4b5b" x="401.656316" y="128.33779" style="fill: #ff0000; stroke: #ff0000"/>
     <use xlink:href="#m1e603b4b5b" x="405.040391" y="129.028399" style="fill: #ff0000; stroke: #ff0000"/>
     <use xlink:href="#m1e603b4b5b" x="408.424465" y="130.064311" style="fill: #ff0000; stroke: #ff0000"/>
     <use xlink:href="#m1e603b4b5b" x="411.808539" y="131.402364" style="fill: #ff0000; stroke: #ff0000"/>
     <use xlink:href="#m1e603b4b5b" x="415.192613" y="132.869906" style="fill: #ff0000; stroke: #ff0000"/>
     <use xlink:href="#m1e603b4b5b" x="418.576687" y="134.553263" style="fill: #ff0000; stroke: #ff0000"/>
     <use xlink:href="#m1e603b4b5b" x="422.299169" y="134.207959" style="fill: #ff0000; stroke: #ff0000"/>
     <use xlink:href="#m1e603b4b5b" x="425.683243" y="133.690003" style="fill: #ff0000; stroke: #ff0000"/>
     <use xlink:href="#m1e603b4b5b" x="429.067318" y="133.344699" style="fill: #ff0000; stroke: #ff0000"/>
     <use xlink:href="#m1e603b4b5b" x="432.451392" y="133.258373" style="fill: #ff0000; stroke: #ff0000"/>
     <use xlink:href="#m1e603b4b5b" x="435.835466" y="133.258373" style="fill: #ff0000; stroke: #ff0000"/>
     <use xlink:href="#m1e603b4b5b" x="439.21954" y="133.431025" style="fill: #ff0000; stroke: #ff0000"/>
     <use xlink:href="#m1e603b4b5b" x="442.603615" y="133.690003" style="fill: #ff0000; stroke: #ff0000"/>
     <use xlink:href="#m1e603b4b5b" x="445.987689" y="134.07847" style="fill: #ff0000; stroke: #ff0000"/>
     <use xlink:href="#m1e603b4b5b" x="449.371763" y="134.466937" style="fill: #ff0000; stroke: #ff0000"/>
     <use xlink:href="#m1e603b4b5b" x="452.755837" y="134.94173" style="fill: #ff0000; stroke: #ff0000"/>
     <use xlink:href="#m1e603b4b5b" x="456.139911" y="135.502849" style="fill: #ff0000; stroke: #ff0000"/>
     <use xlink:href="#m1e603b4b5b" x="459.523986" y="136.063968" style="fill: #ff0000; stroke: #ff0000"/>
     <use xlink:href="#m1e603b4b5b" x="462.90806" y="136.625087" style="fill: #ff0000; stroke: #ff0000"/>
     <use xlink:href="#m1e603b4b5b" x="466.292134" y="137.186206" style="fill: #ff0000; stroke: #ff0000"/>
     <use xlink:href="#m1e603b4b5b" x="469.676208" y="137.704162" style="fill: #ff0000; stroke: #ff0000"/>
     <use xlink:href="#m1e603b4b5b" x="473.060283" y="138.265281" style="fill: #ff0000; stroke: #ff0000"/>
     <use xlink:href="#m1e603b4b5b" x="476.444357" y="138.783237" style="fill: #ff0000; stroke: #ff0000"/>
     <use xlink:href="#m1e603b4b5b" x="479.828431" y="139.344356" style="fill: #ff0000; stroke: #ff0000"/>
     <use xlink:href="#m1e603b4b5b" x="483.212505" y="139.68966" style="fill: #ff0000; stroke: #ff0000"/>
     <use xlink:href="#m1e603b4b5b" x="486.59658" y="140.207616" style="fill: #ff0000; stroke: #ff0000"/>
     <use xlink:href="#m1e603b4b5b" x="489.980654" y="140.55292" style="fill: #ff0000; stroke: #ff0000"/>
     <use xlink:href="#m1e603b4b5b" x="493.364728" y="140.98455" style="fill: #ff0000; stroke: #ff0000"/>
     <use xlink:href="#m1e603b4b5b" x="496.748802" y="141.329854" style="fill: #ff0000; stroke: #ff0000"/>
     <use xlink:href="#m1e603b4b5b" x="500.132876" y="141.588832" style="fill: #ff0000; stroke: #ff0000"/>
     <use xlink:href="#m1e603b4b5b" x="503.516951" y="142.020462" style="fill: #ff0000; stroke: #ff0000"/>
     <use xlink:href="#m1e603b4b5b" x="506.901025" y="142.193114" style="fill: #ff0000; stroke: #ff0000"/>
     <use xlink:href="#m1e603b4b5b" x="510.285099" y="142.408929" style="fill: #ff0000; stroke: #ff0000"/>
     <use xlink:href="#m1e603b4b5b" x="513.669173" y="142.624745" style="fill: #ff0000; stroke: #ff0000"/>
     <use xlink:href="#m1e603b4b5b" x="517.053248" y="142.797397" style="fill: #ff0000; stroke: #ff0000"/>
     <use xlink:href="#m1e603b4b5b" x="520.437322" y="143.013212" style="fill: #ff0000; stroke: #ff0000"/>
     <use xlink:href="#m1e603b4b5b" x="523.821396" y="143.185864" style="fill: #ff0000; stroke: #ff0000"/>
     <use xlink:href="#m1e603b4b5b" x="527.20547" y="143.401679" style="fill: #ff0000; stroke: #ff0000"/>
     <use xlink:href="#m1e603b4b5b" x="530.589545" y="143.574331" style="fill: #ff0000; stroke: #ff0000"/>
     <use xlink:href="#m1e603b4b5b" x="533.973619" y="143.790146" style="fill: #ff0000; stroke: #ff0000"/>
     <use xlink:href="#m1e603b4b5b" x="537.357693" y="144.049124" style="fill: #ff0000; stroke: #ff0000"/>
     <use xlink:href="#m1e603b4b5b" x="540.741767" y="144.394428" style="fill: #ff0000; stroke: #ff0000"/>
     <use xlink:href="#m1e603b4b5b" x="544.125841" y="144.653406" style="fill: #ff0000; stroke: #ff0000"/>
     <use xlink:href="#m1e603b4b5b" x="547.509916" y="145.041873" style="fill: #ff0000; stroke: #ff0000"/>
     <use xlink:href="#m1e603b4b5b" x="550.89399" y="145.516666" style="fill: #ff0000; stroke: #ff0000"/>
     <use xlink:href="#m1e603b4b5b" x="554.278064" y="146.034622" style="fill: #ff0000; stroke: #ff0000"/>
     <use xlink:href="#m1e603b4b5b" x="557.662138" y="146.509415" style="fill: #ff0000; stroke: #ff0000"/>
     <use xlink:href="#m1e603b4b5b" x="561.046213" y="147.243186" style="fill: #ff0000; stroke: #ff0000"/>
     <use xlink:href="#m1e603b4b5b" x="564.430287" y="147.976957" style="fill: #ff0000; stroke: #ff0000"/>
     <use xlink:href="#m1e603b4b5b" x="567.814361" y="148.840217" style="fill: #ff0000; stroke: #ff0000"/>
     <use xlink:href="#m1e603b4b5b" x="571.198435" y="149.789803" style="fill: #ff0000; stroke: #ff0000"/>
     <use xlink:href="#m1e603b4b5b" x="574.244102" y="150.825715" style="fill: #ff0000; stroke: #ff0000"/>
     <use xlink:href="#m1e603b4b5b" x="577.628176" y="150.307759" style="fill: #ff0000; stroke: #ff0000"/>
     <use xlink:href="#m1e603b4b5b" x="581.012251" y="149.919292" style="fill: #ff0000; stroke: #ff0000"/>
     <use xlink:href="#m1e603b4b5b" x="584.396325" y="149.573988" style="fill: #ff0000; stroke: #ff0000"/>
     <use xlink:href="#m1e603b4b5b" x="587.780399" y="149.358173" style="fill: #ff0000; stroke: #ff0000"/>
     <use xlink:href="#m1e603b4b5b" x="591.164473" y="149.228684" style="fill: #ff0000; stroke: #ff0000"/>
     <use xlink:href="#m1e603b4b5b" x="594.548548" y="149.271847" style="fill: #ff0000; stroke: #ff0000"/>
     <use xlink:href="#m1e603b4b5b" x="597.932622" y="149.444499" style="fill: #ff0000; stroke: #ff0000"/>
     <use xlink:href="#m1e603b4b5b" x="601.316696" y="149.876129" style="fill: #ff0000; stroke: #ff0000"/>
     <use xlink:href="#m1e603b4b5b" x="604.70077" y="150.350922" style="fill: #ff0000; stroke: #ff0000"/>
     <use xlink:href="#m1e603b4b5b" x="608.084844" y="151.084693" style="fill: #ff0000; stroke: #ff0000"/>
     <use xlink:href="#m1e603b4b5b" x="611.468919" y="151.947953" style="fill: #ff0000; stroke: #ff0000"/>
     <use xlink:href="#m1e603b4b5b" x="614.852993" y="153.070191" style="fill: #ff0000; stroke: #ff0000"/>
     <use xlink:href="#m1e603b4b5b" x="618.237067" y="154.365081" style="fill: #ff0000; stroke: #ff0000"/>
     <use xlink:href="#m1e603b4b5b" x="621.282734" y="153.588147" style="fill: #ff0000; stroke: #ff0000"/>
    </g>
   </g>
   <g id="patch_3">
    <path d="M 90 384.48 
L 90 51.84 
" style="fill: none; stroke: #000000; stroke-width: 0.8; stroke-linejoin: miter; stroke-linecap: square"/>
   </g>
   <g id="patch_4">
    <path d="M 648 384.48 
L 648 51.84 
" style="fill: none; stroke: #000000; stroke-width: 0.8; stroke-linejoin: miter; stroke-linecap: square"/>
   </g>
   <g id="patch_5">
    <path d="M 90 384.48 
L 648 384.48 
" style="fill: none; stroke: #000000; stroke-width: 0.8; stroke-linejoin: miter; stroke-linecap: square"/>
   </g>
   <g id="patch_6">
    <path d="M 90 51.84 
L 648 51.84 
" style="fill: none; stroke: #000000; stroke-width: 0.8; stroke-linejoin: miter; stroke-linecap: square"/>
   </g>
   <g id="text_17">
    <!-- (Intervalo: 0s a 300s) -->
    <g transform="translate(261.88125 45.84) scale(0.2 -0.2)">
     <defs>
      <path id="DejaVuSans-49" d="M 628 4666 
L 1259 4666 
L 1259 0 
L 628 0 
L 628 4666 
z
" transform="scale(0.015625)"/>
      <path id="DejaVuSans-74" d="M 1172 4494 
L 1172 3500 
L 2356 3500 
L 2356 3053 
L 1172 3053 
L 1172 1153 
Q 1172 725 1289 603 
Q 1406 481 1766 481 
L 2356 481 
L 2356 0 
L 1766 0 
Q 1100 0 847 248 
Q 594 497 594 1153 
L 594 3053 
L 172 3053 
L 172 3500 
L 594 3500 
L 594 4494 
L 1172 4494 
z
" transform="scale(0.015625)"/>
      <path id="DejaVuSans-76" d="M 191 3500 
L 800 3500 
L 1894 563 
L 2988 3500 
L 3597 3500 
L 2284 0 
L 1503 0 
L 191 3500 
z
" transform="scale(0.015625)"/>
      <path id="DejaVuSans-3a" d="M 750 794 
L 1409 794 
L 1409 0 
L 750 0 
L 750 794 
z
M 750 3309 
L 1409 3309 
L 1409 2516 
L 750 2516 
L 750 3309 
z
" transform="scale(0.015625)"/>
     </defs>
     <use xlink:href="#DejaVuSans-28"/>
     <use xlink:href="#DejaVuSans-49" x="39.013672"/>
     <use xlink:href="#DejaVuSans-6e" x="68.505859"/>
     <use xlink:href="#DejaVuSans-74" x="131.884766"/>
     <use xlink:href="#DejaVuSans-65" x="171.09375"/>
     <use xlink:href="#DejaVuSans-72" x="232.617188"/>
     <use xlink:href="#DejaVuSans-76" x="273.730469"/>
     <use xlink:href="#DejaVuSans-61" x="332.910156"/>
     <use xlink:href="#DejaVuSans-6c" x="394.189453"/>
     <use xlink:href="#DejaVuSans-6f" x="421.972656"/>
     <use xlink:href="#DejaVuSans-3a" x="483.154297"/>
     <use xlink:href="#DejaVuSans-20" x="516.845703"/>
     <use xlink:href="#DejaVuSans-30" x="548.632812"/>
     <use xlink:href="#DejaVuSans-73" x="612.255859"/>
     <use xlink:href="#DejaVuSans-20" x="664.355469"/>
     <use xlink:href="#DejaVuSans-61" x="696.142578"/>
     <use xlink:href="#DejaVuSans-20" x="757.421875"/>
     <use xlink:href="#DejaVuSans-33" x="789.208984"/>
     <use xlink:href="#DejaVuSans-30" x="852.832031"/>
     <use xlink:href="#DejaVuSans-30" x="916.455078"/>
     <use xlink:href="#DejaVuSans-73" x="980.078125"/>
     <use xlink:href="#DejaVuSans-29" x="1032.177734"/>
    </g>
   </g>
   <g id="legend_1">
    <g id="patch_7">
     <path d="M 477.332812 89.19625 
L 641 89.19625 
Q 643 89.19625 643 87.19625 
L 643 58.84 
Q 643 56.84 641 56.84 
L 477.332812 56.84 
Q 475.332812 56.84 475.332812 58.84 
L 475.332812 87.19625 
Q 475.332812 89.19625 477.332812 89.19625 
z
" style="fill: #ffffff; opacity: 0.8; stroke: #cccccc; stroke-linejoin: miter"/>
    </g>
    <g id="line2d_31">
     <path d="M 479.332812 64.938437 
L 489.332812 64.938437 
L 499.332812 64.938437 
" style="fill: none; stroke: #0000ff; stroke-opacity: 0.7; stroke-width: 1.5; stroke-linecap: square"/>
    </g>
    <g id="text_18">
     <!-- Velocidade Angular -->
     <g transform="translate(507.332812 68.438437) scale(0.1 -0.1)">
      <use xlink:href="#DejaVuSans-56"/>
      <use xlink:href="#DejaVuSans-65" x="60.658203"/>
      <use xlink:href="#DejaVuSans-6c" x="122.181641"/>
      <use xlink:href="#DejaVuSans-6f" x="149.964844"/>
      <use xlink:href="#DejaVuSans-63" x="211.146484"/>
      <use xlink:href="#DejaVuSans-69" x="266.126953"/>
      <use xlink:href="#DejaVuSans-64" x="293.910156"/>
      <use xlink:href="#DejaVuSans-61" x="357.386719"/>
      <use xlink:href="#DejaVuSans-64" x="418.666016"/>
      <use xlink:href="#DejaVuSans-65" x="482.142578"/>
      <use xlink:href="#DejaVuSans-20" x="543.666016"/>
      <use xlink:href="#DejaVuSans-41" x="575.453125"/>
      <use xlink:href="#DejaVuSans-6e" x="643.861328"/>
      <use xlink:href="#DejaVuSans-67" x="707.240234"/>
      <use xlink:href="#DejaVuSans-75" x="770.716797"/>
      <use xlink:href="#DejaVuSans-6c" x="834.095703"/>
      <use xlink:href="#DejaVuSans-61" x="861.878906"/>
      <use xlink:href="#DejaVuSans-72" x="923.158203"/>
     </g>
    </g>
    <g id="line2d_32">
     <g>
      <use xlink:href="#m1e603b4b5b" x="489.332812" y="79.616562" style="fill: #ff0000; stroke: #ff0000"/>
     </g>
    </g>
    <g id="text_19">
     <!-- Picos Detectados (N=146) -->
     <g transform="translate(507.332812 83.116562) scale(0.1 -0.1)">
      <defs>
       <path id="DejaVuSans-50" d="M 1259 4147 
L 1259 2394 
L 2053 2394 
Q 2494 2394 2734 2622 
Q 2975 2850 2975 3272 
Q 2975 3691 2734 3919 
Q 2494 4147 2053 4147 
L 1259 4147 
z
M 628 4666 
L 2053 4666 
Q 2838 4666 3239 4311 
Q 3641 3956 3641 3272 
Q 3641 2581 3239 2228 
Q 2838 1875 2053 1875 
L 1259 1875 
L 1259 0 
L 628 0 
L 628 4666 
z
" transform="scale(0.015625)"/>
       <path id="DejaVuSans-44" d="M 1259 4147 
L 1259 519 
L 2022 519 
Q 2988 519 3436 956 
Q 3884 1394 3884 2338 
Q 3884 3275 3436 3711 
Q 2988 4147 2022 4147 
L 1259 4147 
z
M 628 4666 
L 1925 4666 
Q 3281 4666 3915 4102 
Q 4550 3538 4550 2338 
Q 4550 1131 3912 565 
Q 3275 0 1925 0 
L 628 0 
L 628 4666 
z
" transform="scale(0.015625)"/>
       <path id="DejaVuSans-4e" d="M 628 4666 
L 1478 4666 
L 3547 763 
L 3547 4666 
L 4159 4666 
L 4159 0 
L 3309 0 
L 1241 3903 
L 1241 0 
L 628 0 
L 628 4666 
z
" transform="scale(0.015625)"/>
       <path id="DejaVuSans-3d" d="M 678 2906 
L 4684 2906 
L 4684 2381 
L 678 2381 
L 678 2906 
z
M 678 1631 
L 4684 1631 
L 4684 1100 
L 678 1100 
L 678 1631 
z
" transform="scale(0.015625)"/>
       <path id="DejaVuSans-34" d="M 2419 4116 
L 825 1625 
L 2419 1625 
L 2419 4116 
z
M 2253 4666 
L 3047 4666 
L 3047 1625 
L 3713 1625 
L 3713 1100 
L 3047 1100 
L 3047 0 
L 2419 0 
L 2419 1100 
L 313 1100 
L 313 1709 
L 2253 4666 
z
" transform="scale(0.015625)"/>
       <path id="DejaVuSans-36" d="M 2113 2584 
Q 1688 2584 1439 2293 
Q 1191 2003 1191 1497 
Q 1191 994 1439 701 
Q 1688 409 2113 409 
Q 2538 409 2786 701 
Q 3034 994 3034 1497 
Q 3034 2003 2786 2293 
Q 2538 2584 2113 2584 
z
M 3366 4563 
L 3366 3988 
Q 3128 4100 2886 4159 
Q 2644 4219 2406 4219 
Q 1781 4219 1451 3797 
Q 1122 3375 1075 2522 
Q 1259 2794 1537 2939 
Q 1816 3084 2150 3084 
Q 2853 3084 3261 2657 
Q 3669 2231 3669 1497 
Q 3669 778 3244 343 
Q 2819 -91 2113 -91 
Q 1303 -91 875 529 
Q 447 1150 447 2328 
Q 447 3434 972 4092 
Q 1497 4750 2381 4750 
Q 2619 4750 2861 4703 
Q 3103 4656 3366 4563 
z
" transform="scale(0.015625)"/>
      </defs>
      <use xlink:href="#DejaVuSans-50"/>
      <use xlink:href="#DejaVuSans-69" x="58.052734"/>
      <use xlink:href="#DejaVuSans-63" x="85.835938"/>
      <use xlink:href="#DejaVuSans-6f" x="140.816406"/>
      <use xlink:href="#DejaVuSans-73" x="201.998047"/>
      <use xlink:href="#DejaVuSans-20" x="254.097656"/>
      <use xlink:href="#DejaVuSans-44" x="285.884766"/>
      <use xlink:href="#DejaVuSans-65" x="362.886719"/>
      <use xlink:href="#DejaVuSans-74" x="424.410156"/>
      <use xlink:href="#DejaVuSans-65" x="463.619141"/>
      <use xlink:href="#DejaVuSans-63" x="525.142578"/>
      <use xlink:href="#DejaVuSans-74" x="580.123047"/>
      <use xlink:href="#DejaVuSans-61" x="619.332031"/>
      <use xlink:href="#DejaVuSans-64" x="680.611328"/>
      <use xlink:href="#DejaVuSans-6f" x="744.087891"/>
      <use xlink:href="#DejaVuSans-73" x="805.269531"/>
      <use xlink:href="#DejaVuSans-20" x="857.369141"/>
      <use xlink:href="#DejaVuSans-28" x="889.15625"/>
      <use xlink:href="#DejaVuSans-4e" x="928.169922"/>
      <use xlink:href="#DejaVuSans-3d" x="1002.974609"/>
      <use xlink:href="#DejaVuSans-31" x="1086.763672"/>
      <use xlink:href="#DejaVuSans-34" x="1150.386719"/>
      <use xlink:href="#DejaVuSans-36" x="1214.009766"/>
      <use xlink:href="#DejaVuSans-29" x="1277.632812"/>
     </g>
    </g>
   </g>
  </g>
 </g>
 <defs>
  <clipPath id="p5cd8a01406">
   <rect x="90" y="51.84" width="558" height="332.64"/>
  </clipPath>
 </defs>
</svg>
